M48
;DRILL file {KiCad 4.0.2-1.fc23-product} date Fri 22 Apr 2016 01:09:05 PM EEST
;FORMAT={-:-/ absolute / metric / decimal}
FMAT,2
METRIC,TZ
T1C0.300
T2C0.350
T3C0.400
T4C0.800
%
G90
G05
M71
T1
X115.235Y-82.981
X115.235Y-84.081
X115.235Y-85.181
X116.335Y-82.981
X116.335Y-84.081
X116.335Y-85.181
X117.435Y-82.981
X117.435Y-84.081
X117.435Y-85.181
X172.66Y-111.806
X172.66Y-112.906
X172.66Y-114.006
X173.76Y-111.806
X173.76Y-112.906
X173.76Y-114.006
X174.86Y-111.806
X174.86Y-112.906
X174.86Y-114.006
T2
X139.322Y-76.231
X139.322Y-76.931
X140.022Y-76.231
X140.022Y-76.931
T3
X103.5Y-56.
X103.6Y-63.
X104.5Y-139.5
X104.5Y-145.5
X106.9Y-108.5
X106.958Y-85.481
X107.Y-127.5
X107.5Y-121.
X107.5Y-133.4
X107.872Y-90.816
X107.982Y-84.506
X108.172Y-89.516
X108.5Y-79.5
X108.922Y-89.516
X109.Y-96.
X109.4Y-69.5
X109.582Y-84.656
X109.892Y-82.806
X110.Y-75.
X110.Y-99.5
X110.Y-145.5
X110.162Y-81.876
X110.202Y-83.859
X110.3Y-113.6
X110.472Y-81.116
X111.522Y-80.246
X111.852Y-86.586
X112.052Y-94.696
X112.06Y-137.84
X112.922Y-89.766
X113.062Y-93.266
X113.5Y-126.
X113.572Y-81.516
X113.622Y-78.716
X113.622Y-87.046
X114.Y-140.9
X114.022Y-89.766
X114.5Y-58.
X114.5Y-66.15
X114.5Y-70.5
X114.5Y-119.3
X114.532Y-76.886
X114.7Y-127.2
X115.372Y-77.146
X115.5Y-125.
X115.6Y-128.4
X115.9Y-137.2
X116.312Y-76.556
X116.622Y-90.266
X117.Y-109.3
X117.972Y-90.216
X117.972Y-91.516
X118.132Y-97.066
X119.272Y-90.216
X119.602Y-81.766
X119.622Y-88.466
X119.8Y-131.9
X119.822Y-77.916
X119.832Y-93.616
X120.212Y-97.066
X120.5Y-58.
X120.572Y-90.216
X120.69Y-137.41
X120.8Y-64.3
X120.8Y-127.39
X120.8Y-125.975
X121.1Y-70.85
X121.13Y-139.66
X121.732Y-97.066
X121.872Y-90.216
X121.97Y-105.65
X122.3Y-135.
X122.672Y-81.866
X122.672Y-82.766
X122.672Y-83.616
X122.7Y-128.8
X122.7Y-131.3
X122.712Y-84.526
X122.722Y-85.946
X123.Y-100.
X123.06Y-106.3
X123.2Y-117.3
X123.272Y-75.716
X123.37Y-124.83
X123.4Y-85.2
X123.69Y-138.34
X123.725Y-95.244
X123.762Y-97.086
X124.072Y-74.916
X124.1Y-136.5
X124.2Y-132.8
X124.372Y-81.716
X124.4Y-139.5
X124.496Y-88.688
X124.5Y-60.5
X124.68Y-96.041
X124.922Y-75.716
X125.Y-120.5
X125.351Y-122.679
X125.372Y-79.066
X125.432Y-81.896
X125.61Y-96.041
X125.9Y-88.4
X125.994Y-89.341
X126.1Y-94.4
X126.2Y-86.1
X126.235Y-87.185
X126.469Y-96.041
X126.48Y-121.44
X126.5Y-112.4
X126.5Y-118.9
X126.532Y-79.836
X126.572Y-81.106
X127.1Y-75.2
X127.3Y-107.05
X127.4Y-127.
X127.77Y-129.13
X127.8Y-143.6
X128.Y-133.
X128.26Y-64.5
X128.26Y-70.6
X128.26Y-82.6
X128.26Y-88.6
X128.28Y-129.903
X128.83Y-130.48
X129.1Y-99.5
X129.4Y-78.1
X129.68Y-119.886
X129.772Y-72.616
X129.772Y-73.816
X130.Y-138.
X130.2Y-99.5
X130.3Y-108.3
X130.9Y-67.
X130.949Y-134.151
X131.3Y-63.4
X131.3Y-99.5
X131.7Y-121.3
X131.872Y-79.116
X132.4Y-99.5
X132.4Y-122.7
X132.485Y-107.037
X132.672Y-79.116
X132.9Y-94.9
X133.Y-58.265
X133.Y-127.5
X133.072Y-72.616
X133.072Y-73.916
X133.16Y-65.94
X133.2Y-112.3
X133.27Y-116.352
X133.4Y-122.7
X133.46Y-70.35
X133.5Y-99.5
X133.512Y-107.053
X133.8Y-138.6
X133.823Y-115.737
X133.872Y-72.616
X133.872Y-73.916
X133.872Y-80.516
X133.872Y-84.816
X133.9Y-81.5
X133.9Y-82.7
X133.9Y-83.8
X134.Y-142.5
X134.4Y-122.7
X134.5Y-132.5
X134.531Y-115.381
X134.6Y-63.5
X134.81Y-68.44
X135.Y-135.5
X135.5Y-107.5
X135.572Y-71.216
X135.916Y-111.516
X136.Y-128.5
X136.2Y-141.7
X136.216Y-122.59
X136.272Y-71.216
X136.71Y-121.59
X136.846Y-142.96
X137.372Y-77.716
X137.412Y-76.006
X137.5Y-112.5
X137.502Y-142.082
X137.572Y-83.416
X137.572Y-84.816
X137.82Y-69.7
X138.172Y-84.116
X138.272Y-70.916
X138.272Y-71.616
X138.44Y-119.4
X138.5Y-127.
X138.872Y-83.416
X138.872Y-84.816
X139.Y-58.27
X139.Y-94.9
X139.5Y-104.
X139.5Y-112.6
X139.572Y-87.516
X139.572Y-88.816
X139.73Y-143.28
X139.8Y-134.
X140.272Y-71.516
X140.5Y-124.2
X140.513Y-120.45
X140.513Y-121.69
X140.672Y-82.816
X140.872Y-87.516
X140.872Y-88.816
X141.1Y-141.2
X141.2Y-144.5
X141.522Y-81.903
X141.572Y-71.516
X141.7Y-125.
X142.Y-56.
X142.172Y-88.816
X142.325Y-128.939
X142.551Y-69.781
X142.572Y-73.816
X142.6Y-66.
X142.6Y-67.2
X142.9Y-139.3
X143.21Y-61.42
X143.41Y-142.19
X143.41Y-143.62
X143.6Y-128.
X143.7Y-66.
X143.7Y-67.2
X143.872Y-83.316
X143.872Y-84.076
X143.872Y-84.816
X143.9Y-100.6
X144.Y-137.5
X144.3Y-134.7
X144.38Y-61.42
X144.6Y-119.3
X144.8Y-121.4
X144.9Y-58.27
X145.Y-94.9
X145.1Y-134.8
X145.172Y-87.716
X145.172Y-88.816
X145.6Y-110.2
X145.8Y-69.7
X146.46Y-74.45
X146.472Y-87.716
X146.472Y-88.816
X146.6Y-106.
X146.6Y-121.4
X146.6Y-125.76
X146.6Y-127.1
X146.6Y-128.6
X146.9Y-129.9
X147.4Y-73.7
X147.6Y-78.2
X147.772Y-87.716
X147.772Y-88.816
X148.5Y-144.
X148.6Y-140.5
X148.9Y-121.5
X149.072Y-85.116
X149.072Y-86.416
X149.072Y-87.716
X149.072Y-88.816
X149.2Y-62.2
X149.5Y-135.7
X149.672Y-83.816
X150.21Y-124.41
X150.21Y-125.7
X150.3Y-74.1
X150.372Y-85.116
X150.372Y-86.416
X150.372Y-87.716
X150.372Y-88.816
X150.9Y-128.2
X151.Y-58.27
X151.Y-94.9
X151.5Y-74.1
X151.7Y-68.9
X152.Y-101.4
X152.7Y-74.1
X152.8Y-125.8
X154.6Y-105.
X155.5Y-78.5
X155.6Y-64.5
X155.9Y-134.1
X156.1Y-85.3
X156.1Y-92.9
X156.8Y-72.7
X157.Y-58.27
X157.Y-94.9
X157.Y-114.5
X157.1Y-142.9
X157.4Y-107.5
X158.8Y-82.1
X159.5Y-100.
X159.7Y-90.7
X160.4Y-75.2
X160.4Y-78.2
X161.21Y-128.094
X161.219Y-123.205
X161.219Y-124.425
X161.219Y-129.245
X161.219Y-130.455
X161.219Y-126.875
X161.229Y-125.585
X161.229Y-131.605
X161.74Y-64.6
X161.74Y-70.5
X161.74Y-82.7
X161.74Y-88.7
X163.5Y-141.
X163.7Y-75.2
X163.7Y-77.9
X163.7Y-97.2
X163.7Y-100.
X163.7Y-113.
X165.1Y-74.1
X165.1Y-79.
X165.1Y-95.9
X165.1Y-98.6
X165.1Y-101.4
X165.1Y-118.9
X165.44Y-104.206
X165.44Y-105.906
X165.5Y-56.5
X166.Y-134.8
X166.32Y-112.846
X166.5Y-75.18
X166.5Y-77.98
X166.5Y-97.221
X166.67Y-113.856
X166.67Y-114.796
X166.89Y-115.666
X167.Y-85.
X167.604Y-109.385
X167.9Y-74.1
X167.9Y-76.7
X167.9Y-79.
X167.9Y-95.9
X167.9Y-98.6
X167.9Y-101.4
X168.31Y-115.646
X168.54Y-103.866
X169.1Y-75.2
X169.21Y-77.98
X169.3Y-97.2
X169.379Y-100.021
X169.46Y-102.646
X169.5Y-62.
X170.02Y-117.776
X170.39Y-102.636
X170.63Y-118.766
X171.215Y-115.561
X171.34Y-104.906
X171.34Y-109.606
X171.42Y-103.766
X171.64Y-106.506
X171.69Y-119.006
X172.Y-89.5
X172.34Y-106.506
X172.42Y-119.456
X173.04Y-106.506
X173.39Y-119.086
X174.04Y-106.406
X174.07Y-121.326
X174.24Y-119.656
X174.5Y-97.
X174.925Y-106.561
X174.93Y-122.336
X175.705Y-107.406
X175.9Y-143.8
X176.147Y-117.385
X176.261Y-102.766
X176.5Y-69.
X176.54Y-115.606
X176.839Y-103.481
X177.Y-61.
X177.416Y-104.102
X177.888Y-104.688
X177.919Y-109.515
X178.225Y-105.361
X179.Y-78.5
X179.Y-86.5
X179.11Y-120.306
X179.11Y-121.156
X179.64Y-115.206
X179.64Y-116.206
X179.84Y-107.306
X179.84Y-108.606
X179.84Y-109.906
X179.84Y-111.206
X179.925Y-112.561
X180.24Y-121.406
X180.64Y-102.006
X181.14Y-111.206
X181.5Y-138.3
X181.54Y-101.006
X182.44Y-102.006
X182.94Y-116.006
X183.Y-72.5
X183.Y-94.5
X183.35Y-109.2
X183.5Y-63.5
X183.81Y-113.42
X183.925Y-114.579
X184.44Y-117.206
X184.447Y-114.002
X184.857Y-105.483
X185.64Y-102.676
X185.64Y-103.561
X185.64Y-104.506
X186.1Y-139.
X186.74Y-105.506
X186.74Y-107.406
X186.74Y-108.906
X186.74Y-111.106
X187.Y-113.7
X189.5Y-68.
X189.5Y-128.9
X190.Y-90.
X191.Y-81.
X191.4Y-110.9
X192.Y-144.5
X192.8Y-133.9
X193.Y-56.5
X193.4Y-119.4
X193.5Y-99.5
T4
X111.4Y-130.9
X111.4Y-132.9
X113.4Y-130.9
X113.4Y-132.9
X115.4Y-130.9
X115.4Y-132.9
X173.5Y-135.
X173.5Y-137.
X175.5Y-135.
X175.5Y-137.
X177.5Y-135.
X177.5Y-137.
X186.278Y-132.834
X186.278Y-134.834
X186.278Y-136.834
X188.278Y-132.834
X188.278Y-134.834
X188.278Y-136.834
T0
M30
