G04 #@! TF.FileFunction,Legend,Bot*
%FSLAX46Y46*%
G04 Gerber Fmt 4.6, Leading zero omitted, Abs format (unit mm)*
G04 Created by KiCad (PCBNEW 4.0.2-1.fc23-product) date Fri 22 Apr 2016 01:08:18 PM EEST*
%MOMM*%
G01*
G04 APERTURE LIST*
%ADD10C,0.100000*%
%ADD11C,0.300000*%
%ADD12C,0.150000*%
%ADD13C,0.170000*%
G04 APERTURE END LIST*
D10*
D11*
X165178572Y-144578571D02*
X165178572Y-143078571D01*
X164464286Y-143578571D02*
X164464286Y-144578571D01*
X164464286Y-143721429D02*
X164392858Y-143650000D01*
X164250000Y-143578571D01*
X164035715Y-143578571D01*
X163892858Y-143650000D01*
X163821429Y-143792857D01*
X163821429Y-144578571D01*
X161964286Y-144578571D02*
X161964286Y-143578571D01*
X161964286Y-143721429D02*
X161892858Y-143650000D01*
X161750000Y-143578571D01*
X161535715Y-143578571D01*
X161392858Y-143650000D01*
X161321429Y-143792857D01*
X161321429Y-144578571D01*
X161321429Y-143792857D02*
X161250000Y-143650000D01*
X161107143Y-143578571D01*
X160892858Y-143578571D01*
X160750000Y-143650000D01*
X160678572Y-143792857D01*
X160678572Y-144578571D01*
X159392858Y-144507143D02*
X159535715Y-144578571D01*
X159821429Y-144578571D01*
X159964286Y-144507143D01*
X160035715Y-144364286D01*
X160035715Y-143792857D01*
X159964286Y-143650000D01*
X159821429Y-143578571D01*
X159535715Y-143578571D01*
X159392858Y-143650000D01*
X159321429Y-143792857D01*
X159321429Y-143935714D01*
X160035715Y-144078571D01*
X158678572Y-144578571D02*
X158678572Y-143578571D01*
X158678572Y-143721429D02*
X158607144Y-143650000D01*
X158464286Y-143578571D01*
X158250001Y-143578571D01*
X158107144Y-143650000D01*
X158035715Y-143792857D01*
X158035715Y-144578571D01*
X158035715Y-143792857D02*
X157964286Y-143650000D01*
X157821429Y-143578571D01*
X157607144Y-143578571D01*
X157464286Y-143650000D01*
X157392858Y-143792857D01*
X157392858Y-144578571D01*
X156464286Y-144578571D02*
X156607144Y-144507143D01*
X156678572Y-144435714D01*
X156750001Y-144292857D01*
X156750001Y-143864286D01*
X156678572Y-143721429D01*
X156607144Y-143650000D01*
X156464286Y-143578571D01*
X156250001Y-143578571D01*
X156107144Y-143650000D01*
X156035715Y-143721429D01*
X155964286Y-143864286D01*
X155964286Y-144292857D01*
X156035715Y-144435714D01*
X156107144Y-144507143D01*
X156250001Y-144578571D01*
X156464286Y-144578571D01*
X155321429Y-144578571D02*
X155321429Y-143578571D01*
X155321429Y-143864286D02*
X155250001Y-143721429D01*
X155178572Y-143650000D01*
X155035715Y-143578571D01*
X154892858Y-143578571D01*
X154535715Y-143578571D02*
X154178572Y-144578571D01*
X153821430Y-143578571D02*
X154178572Y-144578571D01*
X154321430Y-144935714D01*
X154392858Y-145007143D01*
X154535715Y-145078571D01*
X151892858Y-144578571D02*
X152035716Y-144507143D01*
X152107144Y-144435714D01*
X152178573Y-144292857D01*
X152178573Y-143864286D01*
X152107144Y-143721429D01*
X152035716Y-143650000D01*
X151892858Y-143578571D01*
X151678573Y-143578571D01*
X151535716Y-143650000D01*
X151464287Y-143721429D01*
X151392858Y-143864286D01*
X151392858Y-144292857D01*
X151464287Y-144435714D01*
X151535716Y-144507143D01*
X151678573Y-144578571D01*
X151892858Y-144578571D01*
X150964287Y-143578571D02*
X150392858Y-143578571D01*
X150750001Y-144578571D02*
X150750001Y-143292857D01*
X150678573Y-143150000D01*
X150535715Y-143078571D01*
X150392858Y-143078571D01*
X148750001Y-144578571D02*
X148750001Y-143078571D01*
X147892858Y-144578571D02*
X148535715Y-143721429D01*
X147892858Y-143078571D02*
X148750001Y-143935714D01*
X147250001Y-144435714D02*
X147178573Y-144507143D01*
X147250001Y-144578571D01*
X147321430Y-144507143D01*
X147250001Y-144435714D01*
X147250001Y-144578571D01*
X145392858Y-143792857D02*
X144892858Y-143792857D01*
X144678572Y-144578571D02*
X145392858Y-144578571D01*
X145392858Y-143078571D01*
X144678572Y-143078571D01*
X144250001Y-143578571D02*
X143678572Y-143578571D01*
X144035715Y-144578571D02*
X144035715Y-143292857D01*
X143964287Y-143150000D01*
X143821429Y-143078571D01*
X143678572Y-143078571D01*
X143250001Y-144507143D02*
X143107144Y-144578571D01*
X142821429Y-144578571D01*
X142678572Y-144507143D01*
X142607144Y-144364286D01*
X142607144Y-144292857D01*
X142678572Y-144150000D01*
X142821429Y-144078571D01*
X143035715Y-144078571D01*
X143178572Y-144007143D01*
X143250001Y-143864286D01*
X143250001Y-143792857D01*
X143178572Y-143650000D01*
X143035715Y-143578571D01*
X142821429Y-143578571D01*
X142678572Y-143650000D01*
X142178572Y-143578571D02*
X141607143Y-143578571D01*
X141964286Y-143078571D02*
X141964286Y-144364286D01*
X141892858Y-144507143D01*
X141750000Y-144578571D01*
X141607143Y-144578571D01*
X140464286Y-144578571D02*
X140464286Y-143792857D01*
X140535715Y-143650000D01*
X140678572Y-143578571D01*
X140964286Y-143578571D01*
X141107143Y-143650000D01*
X140464286Y-144507143D02*
X140607143Y-144578571D01*
X140964286Y-144578571D01*
X141107143Y-144507143D01*
X141178572Y-144364286D01*
X141178572Y-144221429D01*
X141107143Y-144078571D01*
X140964286Y-144007143D01*
X140607143Y-144007143D01*
X140464286Y-143935714D01*
X139964286Y-143578571D02*
X139392857Y-143578571D01*
X139750000Y-143078571D02*
X139750000Y-144364286D01*
X139678572Y-144507143D01*
X139535714Y-144578571D01*
X139392857Y-144578571D01*
X138892857Y-144578571D02*
X138892857Y-143078571D01*
X138250000Y-144578571D02*
X138250000Y-143792857D01*
X138321429Y-143650000D01*
X138464286Y-143578571D01*
X138678571Y-143578571D01*
X138821429Y-143650000D01*
X138892857Y-143721429D01*
X137535714Y-144578571D02*
X137535714Y-143578571D01*
X137535714Y-143078571D02*
X137607143Y-143150000D01*
X137535714Y-143221429D01*
X137464286Y-143150000D01*
X137535714Y-143078571D01*
X137535714Y-143221429D01*
X136607142Y-144578571D02*
X136750000Y-144507143D01*
X136821428Y-144435714D01*
X136892857Y-144292857D01*
X136892857Y-143864286D01*
X136821428Y-143721429D01*
X136750000Y-143650000D01*
X136607142Y-143578571D01*
X136392857Y-143578571D01*
X136250000Y-143650000D01*
X136178571Y-143721429D01*
X136107142Y-143864286D01*
X136107142Y-144292857D01*
X136178571Y-144435714D01*
X136250000Y-144507143D01*
X136392857Y-144578571D01*
X136607142Y-144578571D01*
X134821428Y-143578571D02*
X134821428Y-144578571D01*
X135464285Y-143578571D02*
X135464285Y-144364286D01*
X135392857Y-144507143D01*
X135249999Y-144578571D01*
X135035714Y-144578571D01*
X134892857Y-144507143D01*
X134821428Y-144435714D01*
D12*
X171500000Y-133500000D02*
X179500000Y-133500000D01*
X171500000Y-138500000D02*
X179500000Y-138500000D01*
X179500000Y-137500000D02*
X179000000Y-137500000D01*
X179000000Y-137500000D02*
X179000000Y-136000000D01*
X179000000Y-136000000D02*
X179500000Y-136000000D01*
X171500000Y-137500000D02*
X172000000Y-137500000D01*
X172000000Y-137500000D02*
X172000000Y-136000000D01*
X172000000Y-136000000D02*
X171500000Y-136000000D01*
X179500000Y-138500000D02*
X179500000Y-133500000D01*
X171500000Y-133500000D02*
X171500000Y-138500000D01*
X189777620Y-130834336D02*
X189777620Y-138834336D01*
X184777620Y-130834336D02*
X184777620Y-138834336D01*
X185777620Y-138834336D02*
X185777620Y-138334336D01*
X185777620Y-138334336D02*
X187277620Y-138334336D01*
X187277620Y-138334336D02*
X187277620Y-138834336D01*
X185777620Y-130834336D02*
X185777620Y-131334336D01*
X185777620Y-131334336D02*
X187277620Y-131334336D01*
X187277620Y-131334336D02*
X187277620Y-130834336D01*
X184777620Y-138834336D02*
X189777620Y-138834336D01*
X189777620Y-130834336D02*
X184777620Y-130834336D01*
D13*
X176690476Y-140028571D02*
X176357142Y-140028571D01*
X176214285Y-140552381D02*
X176690476Y-140552381D01*
X176690476Y-139552381D01*
X176214285Y-139552381D01*
X175785714Y-140552381D02*
X175785714Y-139552381D01*
X175404761Y-139552381D01*
X175309523Y-139600000D01*
X175261904Y-139647619D01*
X175214285Y-139742857D01*
X175214285Y-139885714D01*
X175261904Y-139980952D01*
X175309523Y-140028571D01*
X175404761Y-140076190D01*
X175785714Y-140076190D01*
X174833333Y-140504762D02*
X174690476Y-140552381D01*
X174452380Y-140552381D01*
X174357142Y-140504762D01*
X174309523Y-140457143D01*
X174261904Y-140361905D01*
X174261904Y-140266667D01*
X174309523Y-140171429D01*
X174357142Y-140123810D01*
X174452380Y-140076190D01*
X174642857Y-140028571D01*
X174738095Y-139980952D01*
X174785714Y-139933333D01*
X174833333Y-139838095D01*
X174833333Y-139742857D01*
X174785714Y-139647619D01*
X174738095Y-139600000D01*
X174642857Y-139552381D01*
X174404761Y-139552381D01*
X174261904Y-139600000D01*
X190352381Y-133704762D02*
X190352381Y-133895239D01*
X190400000Y-133990477D01*
X190495238Y-134085715D01*
X190685714Y-134133334D01*
X191019048Y-134133334D01*
X191209524Y-134085715D01*
X191304762Y-133990477D01*
X191352381Y-133895239D01*
X191352381Y-133704762D01*
X191304762Y-133609524D01*
X191209524Y-133514286D01*
X191019048Y-133466667D01*
X190685714Y-133466667D01*
X190495238Y-133514286D01*
X190400000Y-133609524D01*
X190352381Y-133704762D01*
X190828571Y-134895239D02*
X190876190Y-135038096D01*
X190923810Y-135085715D01*
X191019048Y-135133334D01*
X191161905Y-135133334D01*
X191257143Y-135085715D01*
X191304762Y-135038096D01*
X191352381Y-134942858D01*
X191352381Y-134561905D01*
X190352381Y-134561905D01*
X190352381Y-134895239D01*
X190400000Y-134990477D01*
X190447619Y-135038096D01*
X190542857Y-135085715D01*
X190638095Y-135085715D01*
X190733333Y-135038096D01*
X190780952Y-134990477D01*
X190828571Y-134895239D01*
X190828571Y-134561905D01*
X191257143Y-136133334D02*
X191304762Y-136085715D01*
X191352381Y-135942858D01*
X191352381Y-135847620D01*
X191304762Y-135704762D01*
X191209524Y-135609524D01*
X191114286Y-135561905D01*
X190923810Y-135514286D01*
X190780952Y-135514286D01*
X190590476Y-135561905D01*
X190495238Y-135609524D01*
X190400000Y-135704762D01*
X190352381Y-135847620D01*
X190352381Y-135942858D01*
X190400000Y-136085715D01*
X190447619Y-136133334D01*
M02*
