G04 #@! TF.FileFunction,Soldermask,Top*
%FSLAX46Y46*%
G04 Gerber Fmt 4.6, Leading zero omitted, Abs format (unit mm)*
G04 Created by KiCad (PCBNEW 4.0.2-1.fc23-product) date Fri 22 Apr 2016 01:08:18 PM EEST*
%MOMM*%
G01*
G04 APERTURE LIST*
%ADD10C,0.100000*%
%ADD11C,3.400000*%
%ADD12R,1.500000X1.500000*%
%ADD13C,1.500000*%
%ADD14R,1.300000X1.300000*%
%ADD15R,0.500000X0.920000*%
%ADD16R,0.920000X0.500000*%
%ADD17R,2.700000X2.700000*%
%ADD18R,1.400480X0.399720*%
%ADD19R,0.399720X1.400480*%
%ADD20R,1.200000X5.920000*%
%ADD21R,1.200000X4.000000*%
%ADD22R,4.000000X1.200000*%
%ADD23R,4.340000X1.200000*%
%ADD24C,1.350000*%
%ADD25R,1.087120X0.985520*%
%ADD26R,1.149960X1.048360*%
%ADD27R,0.985520X1.087120*%
%ADD28R,1.048360X1.149960*%
%ADD29R,0.420000X0.990000*%
%ADD30R,0.990000X0.420000*%
%ADD31C,0.740000*%
%ADD32R,3.650000X3.650000*%
%ADD33R,0.740000X0.380000*%
%ADD34O,0.740000X0.380000*%
%ADD35O,0.380000X0.740000*%
%ADD36R,0.380000X0.740000*%
%ADD37R,1.600000X1.600000*%
%ADD38R,0.790000X0.810000*%
%ADD39R,0.810000X0.790000*%
%ADD40R,1.000000X1.200000*%
%ADD41R,1.200000X1.000000*%
%ADD42R,1.200760X0.799440*%
%ADD43R,0.799440X1.200760*%
%ADD44R,2.900000X1.000000*%
G04 APERTURE END LIST*
D10*
D11*
X190250000Y-59350000D03*
X192800000Y-138180000D03*
X107250000Y-142350000D03*
D12*
X177500000Y-135000000D03*
D13*
X177500000Y-137000000D03*
X175500000Y-135000000D03*
X175500000Y-137000000D03*
X173500000Y-135000000D03*
X173500000Y-137000000D03*
D14*
X120972380Y-92015664D03*
X120972380Y-93745664D03*
D12*
X115400000Y-132900000D03*
D13*
X115400000Y-130900000D03*
X113400000Y-132900000D03*
X113400000Y-130900000D03*
X111400000Y-132900000D03*
X111400000Y-130900000D03*
D12*
X188277620Y-136834336D03*
D13*
X186277620Y-136834336D03*
X188277620Y-134834336D03*
X186277620Y-134834336D03*
X188277620Y-132834336D03*
X186277620Y-132834336D03*
D15*
X144150000Y-64700000D03*
X143500000Y-64700000D03*
X142850000Y-64700000D03*
X142200000Y-64700000D03*
D16*
X141275000Y-65625000D03*
X141275000Y-66275000D03*
X141275000Y-66925000D03*
X141275000Y-67575000D03*
D15*
X142200000Y-68500000D03*
X142850000Y-68500000D03*
X143500000Y-68500000D03*
X144150000Y-68500000D03*
D16*
X145075000Y-67575000D03*
X145075000Y-66925000D03*
X145075000Y-66275000D03*
X145075000Y-65625000D03*
D17*
X143175000Y-66600000D03*
D18*
X141026760Y-137026760D03*
X141026760Y-136526380D03*
X141026760Y-136026000D03*
X141026760Y-135525620D03*
X141026760Y-135025240D03*
X141026760Y-138525360D03*
X141026760Y-138024980D03*
X141026760Y-137527140D03*
X141026760Y-130526900D03*
X141026760Y-130026520D03*
X141026760Y-129526140D03*
X141026760Y-129025760D03*
X141026760Y-128525380D03*
X141026760Y-128025000D03*
X141026760Y-127524620D03*
X141026760Y-127026780D03*
D19*
X135850240Y-124850000D03*
X135349860Y-124850000D03*
X134852020Y-124850000D03*
X134351640Y-124850000D03*
X133851260Y-124850000D03*
X133350880Y-124850000D03*
X132850500Y-124850000D03*
X132350120Y-124850000D03*
X127851780Y-124850000D03*
X127351400Y-124850000D03*
D18*
X125675000Y-126526400D03*
X125675000Y-127026780D03*
X125675000Y-127524620D03*
X125675000Y-128025000D03*
X125675000Y-128525380D03*
X125675000Y-129025760D03*
X141026760Y-134524860D03*
X141026760Y-134027020D03*
X141026760Y-133526640D03*
X141026760Y-126526400D03*
D19*
X139350360Y-124850000D03*
X138849980Y-124850000D03*
X131849740Y-124850000D03*
X131351900Y-124850000D03*
X130851520Y-124850000D03*
D18*
X125675000Y-129526140D03*
X125675000Y-130026520D03*
X125675000Y-130526900D03*
X141026760Y-133026260D03*
X141026760Y-132525880D03*
X141026760Y-132025500D03*
X141026760Y-131525120D03*
X141026760Y-131024740D03*
D19*
X138352140Y-124850000D03*
X137851760Y-124850000D03*
X137351380Y-124850000D03*
X136851000Y-124850000D03*
X136350620Y-124850000D03*
X130351140Y-124850000D03*
X129850760Y-124850000D03*
X129350380Y-124850000D03*
X128850000Y-124850000D03*
X128349620Y-124850000D03*
D18*
X125675000Y-131024740D03*
X125675000Y-131525120D03*
X125675000Y-132025500D03*
X125675000Y-132525880D03*
X125675000Y-133026260D03*
X125675000Y-133526640D03*
X125675000Y-134027020D03*
X125675000Y-134524860D03*
X125675000Y-135025240D03*
X125675000Y-135525620D03*
X125675000Y-136026000D03*
X125675000Y-136526380D03*
X125675000Y-137026760D03*
X125675000Y-137527140D03*
X125675000Y-138024980D03*
X125675000Y-138525360D03*
D19*
X127351400Y-140201760D03*
X127851780Y-140201760D03*
X128349620Y-140201760D03*
X128850000Y-140201760D03*
X129350380Y-140201760D03*
X129850760Y-140201760D03*
X130351140Y-140201760D03*
X130851520Y-140201760D03*
X131351900Y-140201760D03*
X131849740Y-140201760D03*
X132350120Y-140201760D03*
X132850500Y-140201760D03*
X133350880Y-140201760D03*
X133851260Y-140201760D03*
X134351640Y-140201760D03*
X134852020Y-140201760D03*
X135349860Y-140201760D03*
X135850240Y-140201760D03*
X136350620Y-140201760D03*
X136851000Y-140201760D03*
X137351380Y-140201760D03*
X137851760Y-140201760D03*
X138352140Y-140201760D03*
X138849980Y-140201760D03*
X139350360Y-140201760D03*
D11*
X107250000Y-59350000D03*
D20*
X128260000Y-92540000D03*
D21*
X128260000Y-85590000D03*
X128260000Y-79580000D03*
X128260000Y-73590000D03*
X128260000Y-67590000D03*
X161740000Y-85590000D03*
X161740000Y-79580000D03*
X161740000Y-73590000D03*
X161740000Y-67590000D03*
D20*
X161740000Y-92540000D03*
X161740000Y-60625000D03*
X128260000Y-60625000D03*
D22*
X136000000Y-94900000D03*
X142000000Y-94900000D03*
X148000000Y-94900000D03*
X154000000Y-94900000D03*
X136000000Y-58270000D03*
X142000000Y-58270000D03*
X148000000Y-58270000D03*
X154000000Y-58270000D03*
D23*
X129830000Y-58265000D03*
X160170000Y-58265000D03*
X129830000Y-94900000D03*
X160170000Y-94900000D03*
D24*
X166494769Y-98620741D03*
D10*
G36*
X167244769Y-100670741D02*
X167244769Y-99370741D01*
X168544769Y-99370741D01*
X168544769Y-100670741D01*
X167244769Y-100670741D01*
X167244769Y-100670741D01*
G37*
G36*
X164444769Y-100670741D02*
X164444769Y-99370741D01*
X165744769Y-99370741D01*
X165744769Y-100670741D01*
X164444769Y-100670741D01*
X164444769Y-100670741D01*
G37*
G36*
X164444769Y-97870741D02*
X164444769Y-96570741D01*
X165744769Y-96570741D01*
X165744769Y-97870741D01*
X164444769Y-97870741D01*
X164444769Y-97870741D01*
G37*
G36*
X167244769Y-97870741D02*
X167244769Y-96570741D01*
X168544769Y-96570741D01*
X168544769Y-97870741D01*
X167244769Y-97870741D01*
X167244769Y-97870741D01*
G37*
D24*
X166500000Y-76580000D03*
D10*
G36*
X167250000Y-78630000D02*
X167250000Y-77330000D01*
X168550000Y-77330000D01*
X168550000Y-78630000D01*
X167250000Y-78630000D01*
X167250000Y-78630000D01*
G37*
G36*
X164450000Y-78630000D02*
X164450000Y-77330000D01*
X165750000Y-77330000D01*
X165750000Y-78630000D01*
X164450000Y-78630000D01*
X164450000Y-78630000D01*
G37*
G36*
X164450000Y-75830000D02*
X164450000Y-74530000D01*
X165750000Y-74530000D01*
X165750000Y-75830000D01*
X164450000Y-75830000D01*
X164450000Y-75830000D01*
G37*
G36*
X167250000Y-75830000D02*
X167250000Y-74530000D01*
X168550000Y-74530000D01*
X168550000Y-75830000D01*
X167250000Y-75830000D01*
X167250000Y-75830000D01*
G37*
D25*
X177943592Y-118334488D03*
X176495792Y-119477488D03*
D26*
X176495792Y-118334488D03*
X177943592Y-119477488D03*
D27*
X110915380Y-88315664D03*
X109772380Y-86867864D03*
D28*
X110915380Y-86867864D03*
X109772380Y-88315664D03*
D29*
X114584760Y-86581328D03*
X115084760Y-86581328D03*
X115584760Y-86581328D03*
X116084760Y-86581328D03*
X116584760Y-86581328D03*
X117084760Y-86581328D03*
X117584760Y-86581328D03*
X118084760Y-86581328D03*
D30*
X118834760Y-85831328D03*
X118834760Y-85331328D03*
X118834760Y-84831328D03*
X118834760Y-84331328D03*
X118834760Y-83831328D03*
X118834760Y-83331328D03*
X118834760Y-82831328D03*
X118834760Y-82331328D03*
D29*
X118084760Y-81581328D03*
X117584760Y-81581328D03*
X117084760Y-81581328D03*
X116584760Y-81581328D03*
X116084760Y-81581328D03*
X115584760Y-81581328D03*
X115084760Y-81581328D03*
X114584760Y-81581328D03*
D30*
X113834760Y-82331328D03*
X113834760Y-82831328D03*
X113834760Y-83331328D03*
X113834760Y-83831328D03*
X113834760Y-84331328D03*
X113834760Y-84831328D03*
X113834760Y-85331328D03*
X113834760Y-85831328D03*
D31*
X115234760Y-85181328D03*
X116334760Y-85181328D03*
X117434760Y-85181328D03*
X115234760Y-84081328D03*
X116334760Y-84081328D03*
X117434760Y-84081328D03*
X115234760Y-82981328D03*
X116334760Y-82981328D03*
X117434760Y-82981328D03*
D32*
X116334760Y-84081328D03*
D30*
X176259692Y-114655988D03*
X176259692Y-114155988D03*
X176259692Y-113655988D03*
X176259692Y-113155988D03*
X176259692Y-112655988D03*
X176259692Y-112155988D03*
X176259692Y-111655988D03*
X176259692Y-111155988D03*
D29*
X175509692Y-110405988D03*
X175009692Y-110405988D03*
X174509692Y-110405988D03*
X174009692Y-110405988D03*
X173509692Y-110405988D03*
X173009692Y-110405988D03*
X172509692Y-110405988D03*
X172009692Y-110405988D03*
D30*
X171259692Y-111155988D03*
X171259692Y-111655988D03*
X171259692Y-112155988D03*
X171259692Y-112655988D03*
X171259692Y-113155988D03*
X171259692Y-113655988D03*
X171259692Y-114155988D03*
X171259692Y-114655988D03*
D29*
X172009692Y-115405988D03*
X172509692Y-115405988D03*
X173009692Y-115405988D03*
X173509692Y-115405988D03*
X174009692Y-115405988D03*
X174509692Y-115405988D03*
X175009692Y-115405988D03*
X175509692Y-115405988D03*
D31*
X174859692Y-114005988D03*
X174859692Y-112905988D03*
X174859692Y-111805988D03*
X173759692Y-114005988D03*
X173759692Y-112905988D03*
X173759692Y-111805988D03*
X172659692Y-114005988D03*
X172659692Y-112905988D03*
X172659692Y-111805988D03*
D32*
X173759692Y-112905988D03*
D33*
X138372380Y-76331328D03*
D34*
X138372380Y-75831328D03*
D33*
X138372380Y-76831328D03*
D34*
X138372380Y-77331328D03*
D35*
X138922380Y-77881328D03*
D36*
X139422380Y-77881328D03*
X139922380Y-77881328D03*
D35*
X140422380Y-77881328D03*
D34*
X140972380Y-77331328D03*
D33*
X140972380Y-76831328D03*
X140972380Y-76331328D03*
D34*
X140972380Y-75831328D03*
D35*
X140422380Y-75281328D03*
D36*
X139922380Y-75281328D03*
X139422380Y-75281328D03*
D35*
X138922380Y-75281328D03*
D37*
X139672380Y-76581328D03*
D38*
X180134690Y-119260340D03*
X180134690Y-118240340D03*
D39*
X185639692Y-106505988D03*
X186659692Y-106505988D03*
X177559692Y-115255988D03*
X178579692Y-115255988D03*
X177874769Y-112610741D03*
X178894769Y-112610741D03*
D38*
X177909692Y-111425988D03*
X177909692Y-110405988D03*
X181534690Y-103060340D03*
X181534690Y-102040340D03*
D39*
X179114690Y-117280988D03*
X180134690Y-117280988D03*
D38*
X179109692Y-119375988D03*
X179109692Y-118355988D03*
D39*
X178049692Y-120575988D03*
X177029692Y-120575988D03*
D38*
X175109692Y-121335988D03*
X175109692Y-120315988D03*
D39*
X185684692Y-110005988D03*
X186704692Y-110005988D03*
X178049692Y-121485988D03*
X177029692Y-121485988D03*
D38*
X174859692Y-108425988D03*
X174859692Y-107405988D03*
X174259692Y-118705988D03*
X174259692Y-117685988D03*
X173484692Y-108680988D03*
X173484692Y-107660988D03*
X172999692Y-118075988D03*
X172999692Y-117055988D03*
D39*
X169309692Y-115755988D03*
X170329692Y-115755988D03*
D38*
X172089692Y-118075988D03*
X172089692Y-117055988D03*
X171709692Y-108680988D03*
X171709692Y-107660988D03*
X171184692Y-117775988D03*
X171184692Y-116755988D03*
D39*
X167819692Y-114795988D03*
X168839692Y-114795988D03*
X168039692Y-113855988D03*
X169059692Y-113855988D03*
D38*
X169459692Y-104875988D03*
X169459692Y-103855988D03*
X169434690Y-107920340D03*
X169434690Y-108940340D03*
X169459692Y-106930988D03*
X169459692Y-105910988D03*
X170384692Y-104905988D03*
X170384692Y-103885988D03*
D39*
X167414690Y-107040340D03*
X168434690Y-107040340D03*
X167284692Y-112805988D03*
X168304692Y-112805988D03*
X167284692Y-111055988D03*
X168304692Y-111055988D03*
D38*
X166459692Y-109055988D03*
X166459692Y-108035988D03*
D39*
X166484692Y-105055988D03*
X165464692Y-105055988D03*
D38*
X167459692Y-103180988D03*
X167459692Y-104200988D03*
D39*
X109972380Y-90481328D03*
X110992380Y-90481328D03*
D38*
X122747380Y-96045664D03*
X122747380Y-97065664D03*
X114022380Y-87915664D03*
X114022380Y-88935664D03*
X116584760Y-88281328D03*
X116584760Y-89301328D03*
D39*
X117852380Y-88315664D03*
X118872380Y-88315664D03*
D38*
X126000000Y-92480000D03*
X126000000Y-93500000D03*
X111972380Y-89515664D03*
X111972380Y-90535664D03*
D39*
X109872380Y-89515664D03*
X110892380Y-89515664D03*
D38*
X108672380Y-88435664D03*
X108672380Y-87415664D03*
D39*
X107984760Y-85481328D03*
X109004760Y-85481328D03*
D38*
X119247380Y-96040664D03*
X119247380Y-97060664D03*
X107722380Y-88435664D03*
X107722380Y-87415664D03*
D39*
X120872380Y-85215664D03*
X121892380Y-85215664D03*
X110552380Y-84615664D03*
X111572380Y-84615664D03*
X120584760Y-83881328D03*
X121604760Y-83881328D03*
X111172380Y-83365664D03*
X112192380Y-83365664D03*
D38*
X113472380Y-79681328D03*
X113472380Y-80701328D03*
D39*
X111202380Y-82465664D03*
X112222380Y-82465664D03*
X120572380Y-82065664D03*
X121592380Y-82065664D03*
X111584760Y-81481328D03*
X112604760Y-81481328D03*
D38*
X114472380Y-78195664D03*
X114472380Y-79215664D03*
X115372380Y-78415664D03*
X115372380Y-79435664D03*
D39*
X124342380Y-79855664D03*
X125362380Y-79855664D03*
X121212380Y-79815664D03*
X120192380Y-79815664D03*
X122342380Y-79815664D03*
X123362380Y-79815664D03*
X124342380Y-80745664D03*
X125362380Y-80745664D03*
D38*
X122232380Y-77855664D03*
X122232380Y-78875664D03*
X116452380Y-77635664D03*
X116452380Y-78655664D03*
X118172380Y-77635664D03*
X118172380Y-78655664D03*
D39*
X120142380Y-76835664D03*
X121162380Y-76835664D03*
D38*
X124062380Y-76825664D03*
X124062380Y-75805664D03*
D39*
X126012380Y-77765664D03*
X124992380Y-77765664D03*
D38*
X185634692Y-108905988D03*
X185634692Y-107885988D03*
X170434690Y-109560340D03*
X170434690Y-108540340D03*
X169279692Y-112065988D03*
X169279692Y-111045988D03*
D39*
X167414690Y-108040340D03*
X168434690Y-108040340D03*
X167289692Y-111955988D03*
X168309692Y-111955988D03*
X167284692Y-110155988D03*
X168304692Y-110155988D03*
D38*
X166484692Y-106055988D03*
X166484692Y-107075988D03*
X166234690Y-111460340D03*
X166234690Y-110440340D03*
X166484692Y-103180988D03*
X166484692Y-104200988D03*
D39*
X120222380Y-96015664D03*
X121242380Y-96015664D03*
X119782380Y-80825664D03*
X120802380Y-80825664D03*
X117172380Y-79655664D03*
X118192380Y-79655664D03*
D38*
X121184760Y-77861328D03*
X121184760Y-78881328D03*
X117302380Y-77635664D03*
X117302380Y-78655664D03*
X119032380Y-77645664D03*
X119032380Y-78665664D03*
D39*
X123142380Y-76835664D03*
X122122380Y-76835664D03*
X117752380Y-76635664D03*
X118772380Y-76635664D03*
X125992380Y-76815664D03*
X124972380Y-76815664D03*
X180389692Y-120505988D03*
X181409692Y-120505988D03*
D38*
X176089692Y-121815988D03*
X176089692Y-120795988D03*
D39*
X178579692Y-116305988D03*
X177559692Y-116305988D03*
D38*
X172609692Y-108680988D03*
X172609692Y-107660988D03*
X170409692Y-106930988D03*
X170409692Y-105910988D03*
X108772380Y-90795664D03*
X108772380Y-91815664D03*
D39*
X107452380Y-86465664D03*
X108472380Y-86465664D03*
D38*
X112872380Y-88935664D03*
X112872380Y-87915664D03*
D39*
X120584760Y-82981328D03*
X121604760Y-82981328D03*
X122322380Y-80775664D03*
X123342380Y-80775664D03*
X158919259Y-124454769D03*
X159939259Y-124454769D03*
X158919259Y-125654769D03*
X159939259Y-125654769D03*
X158919259Y-126854769D03*
X159939259Y-126854769D03*
X158919259Y-128054769D03*
X159939259Y-128054769D03*
X158919259Y-129254769D03*
X159939259Y-129254769D03*
X158919259Y-130454769D03*
X159939259Y-130454769D03*
X158919259Y-131654769D03*
X159939259Y-131654769D03*
D38*
X113972380Y-102125664D03*
X113972380Y-101105664D03*
X115117380Y-102125664D03*
X115117380Y-101105664D03*
X116262380Y-102125664D03*
X116262380Y-101105664D03*
X129162380Y-102000000D03*
X129162380Y-100980000D03*
X130252380Y-102000000D03*
X130252380Y-100980000D03*
X131342380Y-102000000D03*
X131342380Y-100980000D03*
X132432380Y-102000000D03*
X132432380Y-100980000D03*
X133522380Y-102000000D03*
X133522380Y-100980000D03*
D39*
X158919259Y-123254769D03*
X159939259Y-123254769D03*
D10*
G36*
X135257380Y-67545664D02*
X135257380Y-66645664D01*
X136107380Y-66645664D01*
X136107380Y-67545664D01*
X135257380Y-67545664D01*
X135257380Y-67545664D01*
G37*
G36*
X136527380Y-67545664D02*
X136527380Y-66645664D01*
X137377380Y-66645664D01*
X137377380Y-67545664D01*
X136527380Y-67545664D01*
X136527380Y-67545664D01*
G37*
G36*
X134259760Y-74431328D02*
X134259760Y-73531328D01*
X135109760Y-73531328D01*
X135109760Y-74431328D01*
X134259760Y-74431328D01*
X134259760Y-74431328D01*
G37*
G36*
X135529760Y-74431328D02*
X135529760Y-73531328D01*
X136379760Y-73531328D01*
X136379760Y-74431328D01*
X135529760Y-74431328D01*
X135529760Y-74431328D01*
G37*
G36*
X131902380Y-76400664D02*
X132802380Y-76400664D01*
X132802380Y-77250664D01*
X131902380Y-77250664D01*
X131902380Y-76400664D01*
X131902380Y-76400664D01*
G37*
G36*
X131902380Y-77670664D02*
X132802380Y-77670664D01*
X132802380Y-78520664D01*
X131902380Y-78520664D01*
X131902380Y-77670664D01*
X131902380Y-77670664D01*
G37*
G36*
X134577380Y-80965664D02*
X134577380Y-80065664D01*
X135427380Y-80065664D01*
X135427380Y-80965664D01*
X134577380Y-80965664D01*
X134577380Y-80965664D01*
G37*
G36*
X135847380Y-80965664D02*
X135847380Y-80065664D01*
X136697380Y-80065664D01*
X136697380Y-80965664D01*
X135847380Y-80965664D01*
X135847380Y-80965664D01*
G37*
G36*
X143934760Y-61956328D02*
X144834760Y-61956328D01*
X144834760Y-62806328D01*
X143934760Y-62806328D01*
X143934760Y-61956328D01*
X143934760Y-61956328D01*
G37*
G36*
X143934760Y-63226328D02*
X144834760Y-63226328D01*
X144834760Y-64076328D01*
X143934760Y-64076328D01*
X143934760Y-63226328D01*
X143934760Y-63226328D01*
G37*
G36*
X142734760Y-61956328D02*
X143634760Y-61956328D01*
X143634760Y-62806328D01*
X142734760Y-62806328D01*
X142734760Y-61956328D01*
X142734760Y-61956328D01*
G37*
G36*
X142734760Y-63226328D02*
X143634760Y-63226328D01*
X143634760Y-64076328D01*
X142734760Y-64076328D01*
X142734760Y-63226328D01*
X142734760Y-63226328D01*
G37*
G36*
X179975000Y-143250000D02*
X179975000Y-142350000D01*
X180825000Y-142350000D01*
X180825000Y-143250000D01*
X179975000Y-143250000D01*
X179975000Y-143250000D01*
G37*
G36*
X181245000Y-143250000D02*
X181245000Y-142350000D01*
X182095000Y-142350000D01*
X182095000Y-143250000D01*
X181245000Y-143250000D01*
X181245000Y-143250000D01*
G37*
G36*
X182095000Y-141150000D02*
X182095000Y-142050000D01*
X181245000Y-142050000D01*
X181245000Y-141150000D01*
X182095000Y-141150000D01*
X182095000Y-141150000D01*
G37*
G36*
X180825000Y-141150000D02*
X180825000Y-142050000D01*
X179975000Y-142050000D01*
X179975000Y-141150000D01*
X180825000Y-141150000D01*
X180825000Y-141150000D01*
G37*
G36*
X182095000Y-143550000D02*
X182095000Y-144450000D01*
X181245000Y-144450000D01*
X181245000Y-143550000D01*
X182095000Y-143550000D01*
X182095000Y-143550000D01*
G37*
G36*
X180825000Y-143550000D02*
X180825000Y-144450000D01*
X179975000Y-144450000D01*
X179975000Y-143550000D01*
X180825000Y-143550000D01*
X180825000Y-143550000D01*
G37*
G36*
X113095000Y-125550000D02*
X113095000Y-126450000D01*
X112245000Y-126450000D01*
X112245000Y-125550000D01*
X113095000Y-125550000D01*
X113095000Y-125550000D01*
G37*
G36*
X111825000Y-125550000D02*
X111825000Y-126450000D01*
X110975000Y-126450000D01*
X110975000Y-125550000D01*
X111825000Y-125550000D01*
X111825000Y-125550000D01*
G37*
G36*
X115095000Y-127950000D02*
X115095000Y-128850000D01*
X114245000Y-128850000D01*
X114245000Y-127950000D01*
X115095000Y-127950000D01*
X115095000Y-127950000D01*
G37*
G36*
X113825000Y-127950000D02*
X113825000Y-128850000D01*
X112975000Y-128850000D01*
X112975000Y-127950000D01*
X113825000Y-127950000D01*
X113825000Y-127950000D01*
G37*
G36*
X114550000Y-137095000D02*
X113650000Y-137095000D01*
X113650000Y-136245000D01*
X114550000Y-136245000D01*
X114550000Y-137095000D01*
X114550000Y-137095000D01*
G37*
G36*
X114550000Y-135825000D02*
X113650000Y-135825000D01*
X113650000Y-134975000D01*
X114550000Y-134975000D01*
X114550000Y-135825000D01*
X114550000Y-135825000D01*
G37*
G36*
X111975000Y-127650000D02*
X111975000Y-126750000D01*
X112825000Y-126750000D01*
X112825000Y-127650000D01*
X111975000Y-127650000D01*
X111975000Y-127650000D01*
G37*
G36*
X113245000Y-127650000D02*
X113245000Y-126750000D01*
X114095000Y-126750000D01*
X114095000Y-127650000D01*
X113245000Y-127650000D01*
X113245000Y-127650000D01*
G37*
G36*
X111650000Y-134975000D02*
X112550000Y-134975000D01*
X112550000Y-135825000D01*
X111650000Y-135825000D01*
X111650000Y-134975000D01*
X111650000Y-134975000D01*
G37*
G36*
X111650000Y-136245000D02*
X112550000Y-136245000D01*
X112550000Y-137095000D01*
X111650000Y-137095000D01*
X111650000Y-136245000D01*
X111650000Y-136245000D01*
G37*
G36*
X138170000Y-141585000D02*
X139070000Y-141585000D01*
X139070000Y-142435000D01*
X138170000Y-142435000D01*
X138170000Y-141585000D01*
X138170000Y-141585000D01*
G37*
G36*
X138170000Y-142855000D02*
X139070000Y-142855000D01*
X139070000Y-143705000D01*
X138170000Y-143705000D01*
X138170000Y-142855000D01*
X138170000Y-142855000D01*
G37*
G36*
X143975000Y-124850000D02*
X143975000Y-123950000D01*
X144825000Y-123950000D01*
X144825000Y-124850000D01*
X143975000Y-124850000D01*
X143975000Y-124850000D01*
G37*
G36*
X145245000Y-124850000D02*
X145245000Y-123950000D01*
X146095000Y-123950000D01*
X146095000Y-124850000D01*
X145245000Y-124850000D01*
X145245000Y-124850000D01*
G37*
G36*
X149805000Y-131253015D02*
X149805000Y-130353015D01*
X150655000Y-130353015D01*
X150655000Y-131253015D01*
X149805000Y-131253015D01*
X149805000Y-131253015D01*
G37*
G36*
X151075000Y-131253015D02*
X151075000Y-130353015D01*
X151925000Y-130353015D01*
X151925000Y-131253015D01*
X151075000Y-131253015D01*
X151075000Y-131253015D01*
G37*
G36*
X143975000Y-130550000D02*
X143975000Y-129650000D01*
X144825000Y-129650000D01*
X144825000Y-130550000D01*
X143975000Y-130550000D01*
X143975000Y-130550000D01*
G37*
G36*
X145245000Y-130550000D02*
X145245000Y-129650000D01*
X146095000Y-129650000D01*
X146095000Y-130550000D01*
X145245000Y-130550000D01*
X145245000Y-130550000D01*
G37*
G36*
X149609760Y-76131328D02*
X149609760Y-77031328D01*
X148759760Y-77031328D01*
X148759760Y-76131328D01*
X149609760Y-76131328D01*
X149609760Y-76131328D01*
G37*
G36*
X148339760Y-76131328D02*
X148339760Y-77031328D01*
X147489760Y-77031328D01*
X147489760Y-76131328D01*
X148339760Y-76131328D01*
X148339760Y-76131328D01*
G37*
G36*
X139377380Y-78855664D02*
X139377380Y-79755664D01*
X138527380Y-79755664D01*
X138527380Y-78855664D01*
X139377380Y-78855664D01*
X139377380Y-78855664D01*
G37*
G36*
X138107380Y-78855664D02*
X138107380Y-79755664D01*
X137257380Y-79755664D01*
X137257380Y-78855664D01*
X138107380Y-78855664D01*
X138107380Y-78855664D01*
G37*
G36*
X146130000Y-123135000D02*
X145230000Y-123135000D01*
X145230000Y-122285000D01*
X146130000Y-122285000D01*
X146130000Y-123135000D01*
X146130000Y-123135000D01*
G37*
G36*
X146130000Y-121865000D02*
X145230000Y-121865000D01*
X145230000Y-121015000D01*
X146130000Y-121015000D01*
X146130000Y-121865000D01*
X146130000Y-121865000D01*
G37*
G36*
X155705000Y-76131328D02*
X155705000Y-77031328D01*
X154855000Y-77031328D01*
X154855000Y-76131328D01*
X155705000Y-76131328D01*
X155705000Y-76131328D01*
G37*
G36*
X154435000Y-76131328D02*
X154435000Y-77031328D01*
X153585000Y-77031328D01*
X153585000Y-76131328D01*
X154435000Y-76131328D01*
X154435000Y-76131328D01*
G37*
G36*
X153150000Y-77005000D02*
X152250000Y-77005000D01*
X152250000Y-76155000D01*
X153150000Y-76155000D01*
X153150000Y-77005000D01*
X153150000Y-77005000D01*
G37*
G36*
X153150000Y-75735000D02*
X152250000Y-75735000D01*
X152250000Y-74885000D01*
X153150000Y-74885000D01*
X153150000Y-75735000D01*
X153150000Y-75735000D01*
G37*
G36*
X150750000Y-77006328D02*
X149850000Y-77006328D01*
X149850000Y-76156328D01*
X150750000Y-76156328D01*
X150750000Y-77006328D01*
X150750000Y-77006328D01*
G37*
G36*
X150750000Y-75736328D02*
X149850000Y-75736328D01*
X149850000Y-74886328D01*
X150750000Y-74886328D01*
X150750000Y-75736328D01*
X150750000Y-75736328D01*
G37*
G36*
X151050000Y-74886328D02*
X151950000Y-74886328D01*
X151950000Y-75736328D01*
X151050000Y-75736328D01*
X151050000Y-74886328D01*
X151050000Y-74886328D01*
G37*
G36*
X151050000Y-76156328D02*
X151950000Y-76156328D01*
X151950000Y-77006328D01*
X151050000Y-77006328D01*
X151050000Y-76156328D01*
X151050000Y-76156328D01*
G37*
G36*
X146034760Y-74885000D02*
X146934760Y-74885000D01*
X146934760Y-75735000D01*
X146034760Y-75735000D01*
X146034760Y-74885000D01*
X146034760Y-74885000D01*
G37*
G36*
X146034760Y-76155000D02*
X146934760Y-76155000D01*
X146934760Y-77005000D01*
X146034760Y-77005000D01*
X146034760Y-76155000D01*
X146034760Y-76155000D01*
G37*
G36*
X141907380Y-87815664D02*
X141907380Y-86915664D01*
X142757380Y-86915664D01*
X142757380Y-87815664D01*
X141907380Y-87815664D01*
X141907380Y-87815664D01*
G37*
G36*
X143177380Y-87815664D02*
X143177380Y-86915664D01*
X144027380Y-86915664D01*
X144027380Y-87815664D01*
X143177380Y-87815664D01*
X143177380Y-87815664D01*
G37*
G36*
X144959760Y-85231328D02*
X144959760Y-84331328D01*
X145809760Y-84331328D01*
X145809760Y-85231328D01*
X144959760Y-85231328D01*
X144959760Y-85231328D01*
G37*
G36*
X146229760Y-85231328D02*
X146229760Y-84331328D01*
X147079760Y-84331328D01*
X147079760Y-85231328D01*
X146229760Y-85231328D01*
X146229760Y-85231328D01*
G37*
G36*
X144959760Y-83931328D02*
X144959760Y-83031328D01*
X145809760Y-83031328D01*
X145809760Y-83931328D01*
X144959760Y-83931328D01*
X144959760Y-83931328D01*
G37*
G36*
X146229760Y-83931328D02*
X146229760Y-83031328D01*
X147079760Y-83031328D01*
X147079760Y-83931328D01*
X146229760Y-83931328D01*
X146229760Y-83931328D01*
G37*
G36*
X142034760Y-74206328D02*
X141134760Y-74206328D01*
X141134760Y-73356328D01*
X142034760Y-73356328D01*
X142034760Y-74206328D01*
X142034760Y-74206328D01*
G37*
G36*
X142034760Y-72936328D02*
X141134760Y-72936328D01*
X141134760Y-72086328D01*
X142034760Y-72086328D01*
X142034760Y-72936328D01*
X142034760Y-72936328D01*
G37*
G36*
X140622380Y-74206328D02*
X139722380Y-74206328D01*
X139722380Y-73356328D01*
X140622380Y-73356328D01*
X140622380Y-74206328D01*
X140622380Y-74206328D01*
G37*
G36*
X140622380Y-72936328D02*
X139722380Y-72936328D01*
X139722380Y-72086328D01*
X140622380Y-72086328D01*
X140622380Y-72936328D01*
X140622380Y-72936328D01*
G37*
G36*
X140202380Y-80210664D02*
X141102380Y-80210664D01*
X141102380Y-81060664D01*
X140202380Y-81060664D01*
X140202380Y-80210664D01*
X140202380Y-80210664D01*
G37*
G36*
X140202380Y-81480664D02*
X141102380Y-81480664D01*
X141102380Y-82330664D01*
X140202380Y-82330664D01*
X140202380Y-81480664D01*
X140202380Y-81480664D01*
G37*
G36*
X136500000Y-68015000D02*
X137400000Y-68015000D01*
X137400000Y-68865000D01*
X136500000Y-68865000D01*
X136500000Y-68015000D01*
X136500000Y-68015000D01*
G37*
G36*
X136500000Y-69285000D02*
X137400000Y-69285000D01*
X137400000Y-70135000D01*
X136500000Y-70135000D01*
X136500000Y-69285000D01*
X136500000Y-69285000D01*
G37*
G36*
X138722380Y-74206328D02*
X137822380Y-74206328D01*
X137822380Y-73356328D01*
X138722380Y-73356328D01*
X138722380Y-74206328D01*
X138722380Y-74206328D01*
G37*
G36*
X138722380Y-72936328D02*
X137822380Y-72936328D01*
X137822380Y-72086328D01*
X138722380Y-72086328D01*
X138722380Y-72936328D01*
X138722380Y-72936328D01*
G37*
G36*
X138522380Y-80190664D02*
X139422380Y-80190664D01*
X139422380Y-81040664D01*
X138522380Y-81040664D01*
X138522380Y-80190664D01*
X138522380Y-80190664D01*
G37*
G36*
X138522380Y-81460664D02*
X139422380Y-81460664D01*
X139422380Y-82310664D01*
X138522380Y-82310664D01*
X138522380Y-81460664D01*
X138522380Y-81460664D01*
G37*
G36*
X136134760Y-70140664D02*
X135234760Y-70140664D01*
X135234760Y-69290664D01*
X136134760Y-69290664D01*
X136134760Y-70140664D01*
X136134760Y-70140664D01*
G37*
G36*
X136134760Y-68870664D02*
X135234760Y-68870664D01*
X135234760Y-68020664D01*
X136134760Y-68020664D01*
X136134760Y-68870664D01*
X136134760Y-68870664D01*
G37*
G36*
X136597380Y-76375664D02*
X136597380Y-77275664D01*
X135747380Y-77275664D01*
X135747380Y-76375664D01*
X136597380Y-76375664D01*
X136597380Y-76375664D01*
G37*
G36*
X135327380Y-76375664D02*
X135327380Y-77275664D01*
X134477380Y-77275664D01*
X134477380Y-76375664D01*
X135327380Y-76375664D01*
X135327380Y-76375664D01*
G37*
G36*
X137134760Y-80186328D02*
X138034760Y-80186328D01*
X138034760Y-81036328D01*
X137134760Y-81036328D01*
X137134760Y-80186328D01*
X137134760Y-80186328D01*
G37*
G36*
X137134760Y-81456328D02*
X138034760Y-81456328D01*
X138034760Y-82306328D01*
X137134760Y-82306328D01*
X137134760Y-81456328D01*
X137134760Y-81456328D01*
G37*
G36*
X134247380Y-72565664D02*
X134247380Y-71665664D01*
X135097380Y-71665664D01*
X135097380Y-72565664D01*
X134247380Y-72565664D01*
X134247380Y-72565664D01*
G37*
G36*
X135517380Y-72565664D02*
X135517380Y-71665664D01*
X136367380Y-71665664D01*
X136367380Y-72565664D01*
X135517380Y-72565664D01*
X135517380Y-72565664D01*
G37*
G36*
X132609760Y-72131328D02*
X132609760Y-73031328D01*
X131759760Y-73031328D01*
X131759760Y-72131328D01*
X132609760Y-72131328D01*
X132609760Y-72131328D01*
G37*
G36*
X131339760Y-72131328D02*
X131339760Y-73031328D01*
X130489760Y-73031328D01*
X130489760Y-72131328D01*
X131339760Y-72131328D01*
X131339760Y-72131328D01*
G37*
G36*
X134573044Y-82465664D02*
X134573044Y-81565664D01*
X135423044Y-81565664D01*
X135423044Y-82465664D01*
X134573044Y-82465664D01*
X134573044Y-82465664D01*
G37*
G36*
X135843044Y-82465664D02*
X135843044Y-81565664D01*
X136693044Y-81565664D01*
X136693044Y-82465664D01*
X135843044Y-82465664D01*
X135843044Y-82465664D01*
G37*
G36*
X132607380Y-73425664D02*
X132607380Y-74325664D01*
X131757380Y-74325664D01*
X131757380Y-73425664D01*
X132607380Y-73425664D01*
X132607380Y-73425664D01*
G37*
G36*
X131337380Y-73425664D02*
X131337380Y-74325664D01*
X130487380Y-74325664D01*
X130487380Y-73425664D01*
X131337380Y-73425664D01*
X131337380Y-73425664D01*
G37*
G36*
X134573044Y-83865664D02*
X134573044Y-82965664D01*
X135423044Y-82965664D01*
X135423044Y-83865664D01*
X134573044Y-83865664D01*
X134573044Y-83865664D01*
G37*
G36*
X135843044Y-83865664D02*
X135843044Y-82965664D01*
X136693044Y-82965664D01*
X136693044Y-83865664D01*
X135843044Y-83865664D01*
X135843044Y-83865664D01*
G37*
G36*
X134573044Y-85265664D02*
X134573044Y-84365664D01*
X135423044Y-84365664D01*
X135423044Y-85265664D01*
X134573044Y-85265664D01*
X134573044Y-85265664D01*
G37*
G36*
X135843044Y-85265664D02*
X135843044Y-84365664D01*
X136693044Y-84365664D01*
X136693044Y-85265664D01*
X135843044Y-85265664D01*
X135843044Y-85265664D01*
G37*
G36*
X145109760Y-69331328D02*
X145109760Y-70231328D01*
X144259760Y-70231328D01*
X144259760Y-69331328D01*
X145109760Y-69331328D01*
X145109760Y-69331328D01*
G37*
G36*
X143839760Y-69331328D02*
X143839760Y-70231328D01*
X142989760Y-70231328D01*
X142989760Y-69331328D01*
X143839760Y-69331328D01*
X143839760Y-69331328D01*
G37*
G36*
X149275000Y-140950000D02*
X149275000Y-140050000D01*
X150125000Y-140050000D01*
X150125000Y-140950000D01*
X149275000Y-140950000D01*
X149275000Y-140950000D01*
G37*
G36*
X150545000Y-140950000D02*
X150545000Y-140050000D01*
X151395000Y-140050000D01*
X151395000Y-140950000D01*
X150545000Y-140950000D01*
X150545000Y-140950000D01*
G37*
G36*
X148025000Y-140050000D02*
X148025000Y-140950000D01*
X147175000Y-140950000D01*
X147175000Y-140050000D01*
X148025000Y-140050000D01*
X148025000Y-140050000D01*
G37*
G36*
X146755000Y-140050000D02*
X146755000Y-140950000D01*
X145905000Y-140950000D01*
X145905000Y-140050000D01*
X146755000Y-140050000D01*
X146755000Y-140050000D01*
G37*
G36*
X142450000Y-136575000D02*
X143350000Y-136575000D01*
X143350000Y-137425000D01*
X142450000Y-137425000D01*
X142450000Y-136575000D01*
X142450000Y-136575000D01*
G37*
G36*
X142450000Y-137845000D02*
X143350000Y-137845000D01*
X143350000Y-138695000D01*
X142450000Y-138695000D01*
X142450000Y-137845000D01*
X142450000Y-137845000D01*
G37*
G36*
X140715000Y-142640000D02*
X140715000Y-141740000D01*
X141565000Y-141740000D01*
X141565000Y-142640000D01*
X140715000Y-142640000D01*
X140715000Y-142640000D01*
G37*
G36*
X141985000Y-142640000D02*
X141985000Y-141740000D01*
X142835000Y-141740000D01*
X142835000Y-142640000D01*
X141985000Y-142640000D01*
X141985000Y-142640000D01*
G37*
G36*
X123825000Y-139200000D02*
X123825000Y-140100000D01*
X122975000Y-140100000D01*
X122975000Y-139200000D01*
X123825000Y-139200000D01*
X123825000Y-139200000D01*
G37*
G36*
X122555000Y-139200000D02*
X122555000Y-140100000D01*
X121705000Y-140100000D01*
X121705000Y-139200000D01*
X122555000Y-139200000D01*
X122555000Y-139200000D01*
G37*
G36*
X126425000Y-123450000D02*
X126425000Y-124350000D01*
X125575000Y-124350000D01*
X125575000Y-123450000D01*
X126425000Y-123450000D01*
X126425000Y-123450000D01*
G37*
G36*
X125155000Y-123450000D02*
X125155000Y-124350000D01*
X124305000Y-124350000D01*
X124305000Y-123450000D01*
X125155000Y-123450000D01*
X125155000Y-123450000D01*
G37*
G36*
X138025000Y-122170000D02*
X138025000Y-121270000D01*
X138875000Y-121270000D01*
X138875000Y-122170000D01*
X138025000Y-122170000D01*
X138025000Y-122170000D01*
G37*
G36*
X139295000Y-122170000D02*
X139295000Y-121270000D01*
X140145000Y-121270000D01*
X140145000Y-122170000D01*
X139295000Y-122170000D01*
X139295000Y-122170000D01*
G37*
G36*
X138025000Y-120920000D02*
X138025000Y-120020000D01*
X138875000Y-120020000D01*
X138875000Y-120920000D01*
X138025000Y-120920000D01*
X138025000Y-120920000D01*
G37*
G36*
X139295000Y-120920000D02*
X139295000Y-120020000D01*
X140145000Y-120020000D01*
X140145000Y-120920000D01*
X139295000Y-120920000D01*
X139295000Y-120920000D01*
G37*
G36*
X143275000Y-134350000D02*
X143275000Y-133450000D01*
X144125000Y-133450000D01*
X144125000Y-134350000D01*
X143275000Y-134350000D01*
X143275000Y-134350000D01*
G37*
G36*
X144545000Y-134350000D02*
X144545000Y-133450000D01*
X145395000Y-133450000D01*
X145395000Y-134350000D01*
X144545000Y-134350000D01*
X144545000Y-134350000D01*
G37*
G36*
X143975000Y-129050000D02*
X143975000Y-128150000D01*
X144825000Y-128150000D01*
X144825000Y-129050000D01*
X143975000Y-129050000D01*
X143975000Y-129050000D01*
G37*
G36*
X145245000Y-129050000D02*
X145245000Y-128150000D01*
X146095000Y-128150000D01*
X146095000Y-129050000D01*
X145245000Y-129050000D01*
X145245000Y-129050000D01*
G37*
G36*
X123337380Y-137015664D02*
X123337380Y-137915664D01*
X122487380Y-137915664D01*
X122487380Y-137015664D01*
X123337380Y-137015664D01*
X123337380Y-137015664D01*
G37*
G36*
X122067380Y-137015664D02*
X122067380Y-137915664D01*
X121217380Y-137915664D01*
X121217380Y-137015664D01*
X122067380Y-137015664D01*
X122067380Y-137015664D01*
G37*
G36*
X140715000Y-144040000D02*
X140715000Y-143140000D01*
X141565000Y-143140000D01*
X141565000Y-144040000D01*
X140715000Y-144040000D01*
X140715000Y-144040000D01*
G37*
G36*
X141985000Y-144040000D02*
X141985000Y-143140000D01*
X142835000Y-143140000D01*
X142835000Y-144040000D01*
X141985000Y-144040000D01*
X141985000Y-144040000D01*
G37*
G36*
X128245000Y-122000000D02*
X128245000Y-122900000D01*
X127395000Y-122900000D01*
X127395000Y-122000000D01*
X128245000Y-122000000D01*
X128245000Y-122000000D01*
G37*
G36*
X126975000Y-122000000D02*
X126975000Y-122900000D01*
X126125000Y-122900000D01*
X126125000Y-122000000D01*
X126975000Y-122000000D01*
X126975000Y-122000000D01*
G37*
G36*
X149345000Y-123940000D02*
X149345000Y-124840000D01*
X148495000Y-124840000D01*
X148495000Y-123940000D01*
X149345000Y-123940000D01*
X149345000Y-123940000D01*
G37*
G36*
X148075000Y-123940000D02*
X148075000Y-124840000D01*
X147225000Y-124840000D01*
X147225000Y-123940000D01*
X148075000Y-123940000D01*
X148075000Y-123940000D01*
G37*
G36*
X143975000Y-126160000D02*
X143975000Y-125260000D01*
X144825000Y-125260000D01*
X144825000Y-126160000D01*
X143975000Y-126160000D01*
X143975000Y-126160000D01*
G37*
G36*
X145245000Y-126160000D02*
X145245000Y-125260000D01*
X146095000Y-125260000D01*
X146095000Y-126160000D01*
X145245000Y-126160000D01*
X145245000Y-126160000D01*
G37*
G36*
X149345000Y-125240000D02*
X149345000Y-126140000D01*
X148495000Y-126140000D01*
X148495000Y-125240000D01*
X149345000Y-125240000D01*
X149345000Y-125240000D01*
G37*
G36*
X148075000Y-125240000D02*
X148075000Y-126140000D01*
X147225000Y-126140000D01*
X147225000Y-125240000D01*
X148075000Y-125240000D01*
X148075000Y-125240000D01*
G37*
G36*
X143975000Y-127550000D02*
X143975000Y-126650000D01*
X144825000Y-126650000D01*
X144825000Y-127550000D01*
X143975000Y-127550000D01*
X143975000Y-127550000D01*
G37*
G36*
X145245000Y-127550000D02*
X145245000Y-126650000D01*
X146095000Y-126650000D01*
X146095000Y-127550000D01*
X145245000Y-127550000D01*
X145245000Y-127550000D01*
G37*
G36*
X150375000Y-136150000D02*
X150375000Y-135250000D01*
X151225000Y-135250000D01*
X151225000Y-136150000D01*
X150375000Y-136150000D01*
X150375000Y-136150000D01*
G37*
G36*
X151645000Y-136150000D02*
X151645000Y-135250000D01*
X152495000Y-135250000D01*
X152495000Y-136150000D01*
X151645000Y-136150000D01*
X151645000Y-136150000D01*
G37*
G36*
X148537339Y-135250000D02*
X148537339Y-136150000D01*
X147687339Y-136150000D01*
X147687339Y-135250000D01*
X148537339Y-135250000D01*
X148537339Y-135250000D01*
G37*
G36*
X147267339Y-135250000D02*
X147267339Y-136150000D01*
X146417339Y-136150000D01*
X146417339Y-135250000D01*
X147267339Y-135250000D01*
X147267339Y-135250000D01*
G37*
G36*
X146362339Y-134503015D02*
X146362339Y-131903015D01*
X148462339Y-131903015D01*
X148462339Y-134503015D01*
X146362339Y-134503015D01*
X146362339Y-134503015D01*
G37*
G36*
X150472339Y-134503015D02*
X150472339Y-131903015D01*
X152572339Y-131903015D01*
X152572339Y-134503015D01*
X150472339Y-134503015D01*
X150472339Y-134503015D01*
G37*
G36*
X146750000Y-139650000D02*
X146750000Y-137550000D01*
X148050000Y-137550000D01*
X148050000Y-139650000D01*
X146750000Y-139650000D01*
X146750000Y-139650000D01*
G37*
G36*
X149264840Y-139650000D02*
X149264840Y-137550000D01*
X150564840Y-137550000D01*
X150564840Y-139650000D01*
X149264840Y-139650000D01*
X149264840Y-139650000D01*
G37*
D40*
X109972380Y-91915664D03*
X109972380Y-93315664D03*
X112072380Y-93315664D03*
X112072380Y-91915664D03*
D41*
X181450000Y-119250000D03*
X182850000Y-119250000D03*
X182850000Y-117150000D03*
X181450000Y-117150000D03*
D14*
X181600000Y-108150000D03*
X183330000Y-108150000D03*
D42*
X183863280Y-106455000D03*
X183863280Y-104550000D03*
X183863280Y-105502500D03*
X181750000Y-104550000D03*
X181750000Y-106455000D03*
D43*
X122772380Y-94306640D03*
X124677380Y-94306640D03*
X123724880Y-94306640D03*
X124677380Y-92193360D03*
X122772380Y-92193360D03*
X134084760Y-67254688D03*
X132179760Y-67254688D03*
X133132260Y-67254688D03*
X132179760Y-69367968D03*
X134084760Y-69367968D03*
D44*
X144400000Y-78400000D03*
X144400000Y-80600000D03*
M02*
