G04 #@! TF.FileFunction,Paste,Top*
%FSLAX46Y46*%
G04 Gerber Fmt 4.6, Leading zero omitted, Abs format (unit mm)*
G04 Created by KiCad (PCBNEW 4.0.2-1.fc23-product) date Fri 22 Apr 2016 01:08:18 PM EEST*
%MOMM*%
G01*
G04 APERTURE LIST*
%ADD10C,0.100000*%
%ADD11R,1.100000X1.100000*%
%ADD12R,0.300000X0.720000*%
%ADD13R,0.720000X0.300000*%
%ADD14R,2.500000X2.500000*%
%ADD15R,1.300480X0.299720*%
%ADD16R,0.299720X1.300480*%
%ADD17R,1.000000X5.720000*%
%ADD18R,1.000000X3.800000*%
%ADD19R,3.800000X1.000000*%
%ADD20R,4.140000X1.000000*%
%ADD21R,0.949960X0.848360*%
%ADD22R,0.848360X0.949960*%
%ADD23R,0.280000X0.850000*%
%ADD24R,0.850000X0.280000*%
%ADD25R,3.450000X3.450000*%
%ADD26R,0.640000X0.280000*%
%ADD27O,0.640000X0.280000*%
%ADD28O,0.280000X0.640000*%
%ADD29R,0.280000X0.640000*%
%ADD30R,1.500000X1.500000*%
%ADD31R,0.590000X0.610000*%
%ADD32R,0.610000X0.590000*%
%ADD33R,0.800000X1.000000*%
%ADD34R,1.000000X0.800000*%
%ADD35R,1.000760X0.599440*%
%ADD36R,0.599440X1.000760*%
%ADD37R,2.700000X0.800000*%
G04 APERTURE END LIST*
D10*
D11*
X120972380Y-92015664D03*
X120972380Y-93745664D03*
D12*
X144150000Y-64700000D03*
X143500000Y-64700000D03*
X142850000Y-64700000D03*
X142200000Y-64700000D03*
D13*
X141275000Y-65625000D03*
X141275000Y-66275000D03*
X141275000Y-66925000D03*
X141275000Y-67575000D03*
D12*
X142200000Y-68500000D03*
X142850000Y-68500000D03*
X143500000Y-68500000D03*
X144150000Y-68500000D03*
D13*
X145075000Y-67575000D03*
X145075000Y-66925000D03*
X145075000Y-66275000D03*
X145075000Y-65625000D03*
D14*
X143175000Y-66600000D03*
D15*
X141026760Y-137026760D03*
X141026760Y-136526380D03*
X141026760Y-136026000D03*
X141026760Y-135525620D03*
X141026760Y-135025240D03*
X141026760Y-138525360D03*
X141026760Y-138024980D03*
X141026760Y-137527140D03*
X141026760Y-130526900D03*
X141026760Y-130026520D03*
X141026760Y-129526140D03*
X141026760Y-129025760D03*
X141026760Y-128525380D03*
X141026760Y-128025000D03*
X141026760Y-127524620D03*
X141026760Y-127026780D03*
D16*
X135850240Y-124850000D03*
X135349860Y-124850000D03*
X134852020Y-124850000D03*
X134351640Y-124850000D03*
X133851260Y-124850000D03*
X133350880Y-124850000D03*
X132850500Y-124850000D03*
X132350120Y-124850000D03*
X127851780Y-124850000D03*
X127351400Y-124850000D03*
D15*
X125675000Y-126526400D03*
X125675000Y-127026780D03*
X125675000Y-127524620D03*
X125675000Y-128025000D03*
X125675000Y-128525380D03*
X125675000Y-129025760D03*
X141026760Y-134524860D03*
X141026760Y-134027020D03*
X141026760Y-133526640D03*
X141026760Y-126526400D03*
D16*
X139350360Y-124850000D03*
X138849980Y-124850000D03*
X131849740Y-124850000D03*
X131351900Y-124850000D03*
X130851520Y-124850000D03*
D15*
X125675000Y-129526140D03*
X125675000Y-130026520D03*
X125675000Y-130526900D03*
X141026760Y-133026260D03*
X141026760Y-132525880D03*
X141026760Y-132025500D03*
X141026760Y-131525120D03*
X141026760Y-131024740D03*
D16*
X138352140Y-124850000D03*
X137851760Y-124850000D03*
X137351380Y-124850000D03*
X136851000Y-124850000D03*
X136350620Y-124850000D03*
X130351140Y-124850000D03*
X129850760Y-124850000D03*
X129350380Y-124850000D03*
X128850000Y-124850000D03*
X128349620Y-124850000D03*
D15*
X125675000Y-131024740D03*
X125675000Y-131525120D03*
X125675000Y-132025500D03*
X125675000Y-132525880D03*
X125675000Y-133026260D03*
X125675000Y-133526640D03*
X125675000Y-134027020D03*
X125675000Y-134524860D03*
X125675000Y-135025240D03*
X125675000Y-135525620D03*
X125675000Y-136026000D03*
X125675000Y-136526380D03*
X125675000Y-137026760D03*
X125675000Y-137527140D03*
X125675000Y-138024980D03*
X125675000Y-138525360D03*
D16*
X127351400Y-140201760D03*
X127851780Y-140201760D03*
X128349620Y-140201760D03*
X128850000Y-140201760D03*
X129350380Y-140201760D03*
X129850760Y-140201760D03*
X130351140Y-140201760D03*
X130851520Y-140201760D03*
X131351900Y-140201760D03*
X131849740Y-140201760D03*
X132350120Y-140201760D03*
X132850500Y-140201760D03*
X133350880Y-140201760D03*
X133851260Y-140201760D03*
X134351640Y-140201760D03*
X134852020Y-140201760D03*
X135349860Y-140201760D03*
X135850240Y-140201760D03*
X136350620Y-140201760D03*
X136851000Y-140201760D03*
X137351380Y-140201760D03*
X137851760Y-140201760D03*
X138352140Y-140201760D03*
X138849980Y-140201760D03*
X139350360Y-140201760D03*
D17*
X128260000Y-92540000D03*
D18*
X128260000Y-85590000D03*
X128260000Y-79580000D03*
X128260000Y-73590000D03*
X128260000Y-67590000D03*
X161740000Y-85590000D03*
X161740000Y-79580000D03*
X161740000Y-73590000D03*
X161740000Y-67590000D03*
D17*
X161740000Y-92540000D03*
X161740000Y-60625000D03*
X128260000Y-60625000D03*
D19*
X136000000Y-94900000D03*
X142000000Y-94900000D03*
X148000000Y-94900000D03*
X154000000Y-94900000D03*
X136000000Y-58270000D03*
X142000000Y-58270000D03*
X148000000Y-58270000D03*
X154000000Y-58270000D03*
D20*
X129830000Y-58265000D03*
X160170000Y-58265000D03*
X129830000Y-94900000D03*
X160170000Y-94900000D03*
D21*
X177943592Y-118334488D03*
X176495792Y-119477488D03*
X176495792Y-118334488D03*
X177943592Y-119477488D03*
D22*
X110915380Y-88315664D03*
X109772380Y-86867864D03*
X110915380Y-86867864D03*
X109772380Y-88315664D03*
D23*
X114584760Y-86581328D03*
X115084760Y-86581328D03*
X115584760Y-86581328D03*
X116084760Y-86581328D03*
X116584760Y-86581328D03*
X117084760Y-86581328D03*
X117584760Y-86581328D03*
X118084760Y-86581328D03*
D24*
X118834760Y-85831328D03*
X118834760Y-85331328D03*
X118834760Y-84831328D03*
X118834760Y-84331328D03*
X118834760Y-83831328D03*
X118834760Y-83331328D03*
X118834760Y-82831328D03*
X118834760Y-82331328D03*
D23*
X118084760Y-81581328D03*
X117584760Y-81581328D03*
X117084760Y-81581328D03*
X116584760Y-81581328D03*
X116084760Y-81581328D03*
X115584760Y-81581328D03*
X115084760Y-81581328D03*
X114584760Y-81581328D03*
D24*
X113834760Y-82331328D03*
X113834760Y-82831328D03*
X113834760Y-83331328D03*
X113834760Y-83831328D03*
X113834760Y-84331328D03*
X113834760Y-84831328D03*
X113834760Y-85331328D03*
X113834760Y-85831328D03*
D25*
X116334760Y-84081328D03*
D24*
X176259692Y-114655988D03*
X176259692Y-114155988D03*
X176259692Y-113655988D03*
X176259692Y-113155988D03*
X176259692Y-112655988D03*
X176259692Y-112155988D03*
X176259692Y-111655988D03*
X176259692Y-111155988D03*
D23*
X175509692Y-110405988D03*
X175009692Y-110405988D03*
X174509692Y-110405988D03*
X174009692Y-110405988D03*
X173509692Y-110405988D03*
X173009692Y-110405988D03*
X172509692Y-110405988D03*
X172009692Y-110405988D03*
D24*
X171259692Y-111155988D03*
X171259692Y-111655988D03*
X171259692Y-112155988D03*
X171259692Y-112655988D03*
X171259692Y-113155988D03*
X171259692Y-113655988D03*
X171259692Y-114155988D03*
X171259692Y-114655988D03*
D23*
X172009692Y-115405988D03*
X172509692Y-115405988D03*
X173009692Y-115405988D03*
X173509692Y-115405988D03*
X174009692Y-115405988D03*
X174509692Y-115405988D03*
X175009692Y-115405988D03*
X175509692Y-115405988D03*
D25*
X173759692Y-112905988D03*
D26*
X138372380Y-76331328D03*
D27*
X138372380Y-75831328D03*
D26*
X138372380Y-76831328D03*
D27*
X138372380Y-77331328D03*
D28*
X138922380Y-77881328D03*
D29*
X139422380Y-77881328D03*
X139922380Y-77881328D03*
D28*
X140422380Y-77881328D03*
D27*
X140972380Y-77331328D03*
D26*
X140972380Y-76831328D03*
X140972380Y-76331328D03*
D27*
X140972380Y-75831328D03*
D28*
X140422380Y-75281328D03*
D29*
X139922380Y-75281328D03*
X139422380Y-75281328D03*
D28*
X138922380Y-75281328D03*
D30*
X139672380Y-76581328D03*
D31*
X180134690Y-119260340D03*
X180134690Y-118240340D03*
D32*
X185639692Y-106505988D03*
X186659692Y-106505988D03*
X177559692Y-115255988D03*
X178579692Y-115255988D03*
X177874769Y-112610741D03*
X178894769Y-112610741D03*
D31*
X177909692Y-111425988D03*
X177909692Y-110405988D03*
X181534690Y-103060340D03*
X181534690Y-102040340D03*
D32*
X179114690Y-117280988D03*
X180134690Y-117280988D03*
D31*
X179109692Y-119375988D03*
X179109692Y-118355988D03*
D32*
X178049692Y-120575988D03*
X177029692Y-120575988D03*
D31*
X175109692Y-121335988D03*
X175109692Y-120315988D03*
D32*
X185684692Y-110005988D03*
X186704692Y-110005988D03*
X178049692Y-121485988D03*
X177029692Y-121485988D03*
D31*
X174859692Y-108425988D03*
X174859692Y-107405988D03*
X174259692Y-118705988D03*
X174259692Y-117685988D03*
X173484692Y-108680988D03*
X173484692Y-107660988D03*
X172999692Y-118075988D03*
X172999692Y-117055988D03*
D32*
X169309692Y-115755988D03*
X170329692Y-115755988D03*
D31*
X172089692Y-118075988D03*
X172089692Y-117055988D03*
X171709692Y-108680988D03*
X171709692Y-107660988D03*
X171184692Y-117775988D03*
X171184692Y-116755988D03*
D32*
X167819692Y-114795988D03*
X168839692Y-114795988D03*
X168039692Y-113855988D03*
X169059692Y-113855988D03*
D31*
X169459692Y-104875988D03*
X169459692Y-103855988D03*
X169434690Y-107920340D03*
X169434690Y-108940340D03*
X169459692Y-106930988D03*
X169459692Y-105910988D03*
X170384692Y-104905988D03*
X170384692Y-103885988D03*
D32*
X167414690Y-107040340D03*
X168434690Y-107040340D03*
X167284692Y-112805988D03*
X168304692Y-112805988D03*
X167284692Y-111055988D03*
X168304692Y-111055988D03*
D31*
X166459692Y-109055988D03*
X166459692Y-108035988D03*
D32*
X166484692Y-105055988D03*
X165464692Y-105055988D03*
D31*
X167459692Y-103180988D03*
X167459692Y-104200988D03*
D32*
X109972380Y-90481328D03*
X110992380Y-90481328D03*
D31*
X122747380Y-96045664D03*
X122747380Y-97065664D03*
X114022380Y-87915664D03*
X114022380Y-88935664D03*
X116584760Y-88281328D03*
X116584760Y-89301328D03*
D32*
X117852380Y-88315664D03*
X118872380Y-88315664D03*
D31*
X126000000Y-92480000D03*
X126000000Y-93500000D03*
X111972380Y-89515664D03*
X111972380Y-90535664D03*
D32*
X109872380Y-89515664D03*
X110892380Y-89515664D03*
D31*
X108672380Y-88435664D03*
X108672380Y-87415664D03*
D32*
X107984760Y-85481328D03*
X109004760Y-85481328D03*
D31*
X119247380Y-96040664D03*
X119247380Y-97060664D03*
X107722380Y-88435664D03*
X107722380Y-87415664D03*
D32*
X120872380Y-85215664D03*
X121892380Y-85215664D03*
X110552380Y-84615664D03*
X111572380Y-84615664D03*
X120584760Y-83881328D03*
X121604760Y-83881328D03*
X111172380Y-83365664D03*
X112192380Y-83365664D03*
D31*
X113472380Y-79681328D03*
X113472380Y-80701328D03*
D32*
X111202380Y-82465664D03*
X112222380Y-82465664D03*
X120572380Y-82065664D03*
X121592380Y-82065664D03*
X111584760Y-81481328D03*
X112604760Y-81481328D03*
D31*
X114472380Y-78195664D03*
X114472380Y-79215664D03*
X115372380Y-78415664D03*
X115372380Y-79435664D03*
D32*
X124342380Y-79855664D03*
X125362380Y-79855664D03*
X121212380Y-79815664D03*
X120192380Y-79815664D03*
X122342380Y-79815664D03*
X123362380Y-79815664D03*
X124342380Y-80745664D03*
X125362380Y-80745664D03*
D31*
X122232380Y-77855664D03*
X122232380Y-78875664D03*
X116452380Y-77635664D03*
X116452380Y-78655664D03*
X118172380Y-77635664D03*
X118172380Y-78655664D03*
D32*
X120142380Y-76835664D03*
X121162380Y-76835664D03*
D31*
X124062380Y-76825664D03*
X124062380Y-75805664D03*
D32*
X126012380Y-77765664D03*
X124992380Y-77765664D03*
D31*
X185634692Y-108905988D03*
X185634692Y-107885988D03*
X170434690Y-109560340D03*
X170434690Y-108540340D03*
X169279692Y-112065988D03*
X169279692Y-111045988D03*
D32*
X167414690Y-108040340D03*
X168434690Y-108040340D03*
X167289692Y-111955988D03*
X168309692Y-111955988D03*
X167284692Y-110155988D03*
X168304692Y-110155988D03*
D31*
X166484692Y-106055988D03*
X166484692Y-107075988D03*
X166234690Y-111460340D03*
X166234690Y-110440340D03*
X166484692Y-103180988D03*
X166484692Y-104200988D03*
D32*
X120222380Y-96015664D03*
X121242380Y-96015664D03*
X119782380Y-80825664D03*
X120802380Y-80825664D03*
X117172380Y-79655664D03*
X118192380Y-79655664D03*
D31*
X121184760Y-77861328D03*
X121184760Y-78881328D03*
X117302380Y-77635664D03*
X117302380Y-78655664D03*
X119032380Y-77645664D03*
X119032380Y-78665664D03*
D32*
X123142380Y-76835664D03*
X122122380Y-76835664D03*
X117752380Y-76635664D03*
X118772380Y-76635664D03*
X125992380Y-76815664D03*
X124972380Y-76815664D03*
X180389692Y-120505988D03*
X181409692Y-120505988D03*
D31*
X176089692Y-121815988D03*
X176089692Y-120795988D03*
D32*
X178579692Y-116305988D03*
X177559692Y-116305988D03*
D31*
X172609692Y-108680988D03*
X172609692Y-107660988D03*
X170409692Y-106930988D03*
X170409692Y-105910988D03*
X108772380Y-90795664D03*
X108772380Y-91815664D03*
D32*
X107452380Y-86465664D03*
X108472380Y-86465664D03*
D31*
X112872380Y-88935664D03*
X112872380Y-87915664D03*
D32*
X120584760Y-82981328D03*
X121604760Y-82981328D03*
X122322380Y-80775664D03*
X123342380Y-80775664D03*
X158919259Y-124454769D03*
X159939259Y-124454769D03*
X158919259Y-125654769D03*
X159939259Y-125654769D03*
X158919259Y-126854769D03*
X159939259Y-126854769D03*
X158919259Y-128054769D03*
X159939259Y-128054769D03*
X158919259Y-129254769D03*
X159939259Y-129254769D03*
X158919259Y-130454769D03*
X159939259Y-130454769D03*
X158919259Y-131654769D03*
X159939259Y-131654769D03*
D31*
X113972380Y-102125664D03*
X113972380Y-101105664D03*
X115117380Y-102125664D03*
X115117380Y-101105664D03*
X116262380Y-102125664D03*
X116262380Y-101105664D03*
X129162380Y-102000000D03*
X129162380Y-100980000D03*
X130252380Y-102000000D03*
X130252380Y-100980000D03*
X131342380Y-102000000D03*
X131342380Y-100980000D03*
X132432380Y-102000000D03*
X132432380Y-100980000D03*
X133522380Y-102000000D03*
X133522380Y-100980000D03*
D32*
X158919259Y-123254769D03*
X159939259Y-123254769D03*
D10*
G36*
X135357380Y-67445664D02*
X135357380Y-66745664D01*
X136007380Y-66745664D01*
X136007380Y-67445664D01*
X135357380Y-67445664D01*
X135357380Y-67445664D01*
G37*
G36*
X136627380Y-67445664D02*
X136627380Y-66745664D01*
X137277380Y-66745664D01*
X137277380Y-67445664D01*
X136627380Y-67445664D01*
X136627380Y-67445664D01*
G37*
G36*
X134359760Y-74331328D02*
X134359760Y-73631328D01*
X135009760Y-73631328D01*
X135009760Y-74331328D01*
X134359760Y-74331328D01*
X134359760Y-74331328D01*
G37*
G36*
X135629760Y-74331328D02*
X135629760Y-73631328D01*
X136279760Y-73631328D01*
X136279760Y-74331328D01*
X135629760Y-74331328D01*
X135629760Y-74331328D01*
G37*
G36*
X132002380Y-76500664D02*
X132702380Y-76500664D01*
X132702380Y-77150664D01*
X132002380Y-77150664D01*
X132002380Y-76500664D01*
X132002380Y-76500664D01*
G37*
G36*
X132002380Y-77770664D02*
X132702380Y-77770664D01*
X132702380Y-78420664D01*
X132002380Y-78420664D01*
X132002380Y-77770664D01*
X132002380Y-77770664D01*
G37*
G36*
X134677380Y-80865664D02*
X134677380Y-80165664D01*
X135327380Y-80165664D01*
X135327380Y-80865664D01*
X134677380Y-80865664D01*
X134677380Y-80865664D01*
G37*
G36*
X135947380Y-80865664D02*
X135947380Y-80165664D01*
X136597380Y-80165664D01*
X136597380Y-80865664D01*
X135947380Y-80865664D01*
X135947380Y-80865664D01*
G37*
G36*
X144034760Y-62056328D02*
X144734760Y-62056328D01*
X144734760Y-62706328D01*
X144034760Y-62706328D01*
X144034760Y-62056328D01*
X144034760Y-62056328D01*
G37*
G36*
X144034760Y-63326328D02*
X144734760Y-63326328D01*
X144734760Y-63976328D01*
X144034760Y-63976328D01*
X144034760Y-63326328D01*
X144034760Y-63326328D01*
G37*
G36*
X142834760Y-62056328D02*
X143534760Y-62056328D01*
X143534760Y-62706328D01*
X142834760Y-62706328D01*
X142834760Y-62056328D01*
X142834760Y-62056328D01*
G37*
G36*
X142834760Y-63326328D02*
X143534760Y-63326328D01*
X143534760Y-63976328D01*
X142834760Y-63976328D01*
X142834760Y-63326328D01*
X142834760Y-63326328D01*
G37*
G36*
X180075000Y-143150000D02*
X180075000Y-142450000D01*
X180725000Y-142450000D01*
X180725000Y-143150000D01*
X180075000Y-143150000D01*
X180075000Y-143150000D01*
G37*
G36*
X181345000Y-143150000D02*
X181345000Y-142450000D01*
X181995000Y-142450000D01*
X181995000Y-143150000D01*
X181345000Y-143150000D01*
X181345000Y-143150000D01*
G37*
G36*
X181995000Y-141250000D02*
X181995000Y-141950000D01*
X181345000Y-141950000D01*
X181345000Y-141250000D01*
X181995000Y-141250000D01*
X181995000Y-141250000D01*
G37*
G36*
X180725000Y-141250000D02*
X180725000Y-141950000D01*
X180075000Y-141950000D01*
X180075000Y-141250000D01*
X180725000Y-141250000D01*
X180725000Y-141250000D01*
G37*
G36*
X181995000Y-143650000D02*
X181995000Y-144350000D01*
X181345000Y-144350000D01*
X181345000Y-143650000D01*
X181995000Y-143650000D01*
X181995000Y-143650000D01*
G37*
G36*
X180725000Y-143650000D02*
X180725000Y-144350000D01*
X180075000Y-144350000D01*
X180075000Y-143650000D01*
X180725000Y-143650000D01*
X180725000Y-143650000D01*
G37*
G36*
X112995000Y-125650000D02*
X112995000Y-126350000D01*
X112345000Y-126350000D01*
X112345000Y-125650000D01*
X112995000Y-125650000D01*
X112995000Y-125650000D01*
G37*
G36*
X111725000Y-125650000D02*
X111725000Y-126350000D01*
X111075000Y-126350000D01*
X111075000Y-125650000D01*
X111725000Y-125650000D01*
X111725000Y-125650000D01*
G37*
G36*
X114995000Y-128050000D02*
X114995000Y-128750000D01*
X114345000Y-128750000D01*
X114345000Y-128050000D01*
X114995000Y-128050000D01*
X114995000Y-128050000D01*
G37*
G36*
X113725000Y-128050000D02*
X113725000Y-128750000D01*
X113075000Y-128750000D01*
X113075000Y-128050000D01*
X113725000Y-128050000D01*
X113725000Y-128050000D01*
G37*
G36*
X114450000Y-136995000D02*
X113750000Y-136995000D01*
X113750000Y-136345000D01*
X114450000Y-136345000D01*
X114450000Y-136995000D01*
X114450000Y-136995000D01*
G37*
G36*
X114450000Y-135725000D02*
X113750000Y-135725000D01*
X113750000Y-135075000D01*
X114450000Y-135075000D01*
X114450000Y-135725000D01*
X114450000Y-135725000D01*
G37*
G36*
X112075000Y-127550000D02*
X112075000Y-126850000D01*
X112725000Y-126850000D01*
X112725000Y-127550000D01*
X112075000Y-127550000D01*
X112075000Y-127550000D01*
G37*
G36*
X113345000Y-127550000D02*
X113345000Y-126850000D01*
X113995000Y-126850000D01*
X113995000Y-127550000D01*
X113345000Y-127550000D01*
X113345000Y-127550000D01*
G37*
G36*
X111750000Y-135075000D02*
X112450000Y-135075000D01*
X112450000Y-135725000D01*
X111750000Y-135725000D01*
X111750000Y-135075000D01*
X111750000Y-135075000D01*
G37*
G36*
X111750000Y-136345000D02*
X112450000Y-136345000D01*
X112450000Y-136995000D01*
X111750000Y-136995000D01*
X111750000Y-136345000D01*
X111750000Y-136345000D01*
G37*
G36*
X138270000Y-141685000D02*
X138970000Y-141685000D01*
X138970000Y-142335000D01*
X138270000Y-142335000D01*
X138270000Y-141685000D01*
X138270000Y-141685000D01*
G37*
G36*
X138270000Y-142955000D02*
X138970000Y-142955000D01*
X138970000Y-143605000D01*
X138270000Y-143605000D01*
X138270000Y-142955000D01*
X138270000Y-142955000D01*
G37*
G36*
X144075000Y-124750000D02*
X144075000Y-124050000D01*
X144725000Y-124050000D01*
X144725000Y-124750000D01*
X144075000Y-124750000D01*
X144075000Y-124750000D01*
G37*
G36*
X145345000Y-124750000D02*
X145345000Y-124050000D01*
X145995000Y-124050000D01*
X145995000Y-124750000D01*
X145345000Y-124750000D01*
X145345000Y-124750000D01*
G37*
G36*
X149905000Y-131153015D02*
X149905000Y-130453015D01*
X150555000Y-130453015D01*
X150555000Y-131153015D01*
X149905000Y-131153015D01*
X149905000Y-131153015D01*
G37*
G36*
X151175000Y-131153015D02*
X151175000Y-130453015D01*
X151825000Y-130453015D01*
X151825000Y-131153015D01*
X151175000Y-131153015D01*
X151175000Y-131153015D01*
G37*
G36*
X144075000Y-130450000D02*
X144075000Y-129750000D01*
X144725000Y-129750000D01*
X144725000Y-130450000D01*
X144075000Y-130450000D01*
X144075000Y-130450000D01*
G37*
G36*
X145345000Y-130450000D02*
X145345000Y-129750000D01*
X145995000Y-129750000D01*
X145995000Y-130450000D01*
X145345000Y-130450000D01*
X145345000Y-130450000D01*
G37*
G36*
X149509760Y-76231328D02*
X149509760Y-76931328D01*
X148859760Y-76931328D01*
X148859760Y-76231328D01*
X149509760Y-76231328D01*
X149509760Y-76231328D01*
G37*
G36*
X148239760Y-76231328D02*
X148239760Y-76931328D01*
X147589760Y-76931328D01*
X147589760Y-76231328D01*
X148239760Y-76231328D01*
X148239760Y-76231328D01*
G37*
G36*
X139277380Y-78955664D02*
X139277380Y-79655664D01*
X138627380Y-79655664D01*
X138627380Y-78955664D01*
X139277380Y-78955664D01*
X139277380Y-78955664D01*
G37*
G36*
X138007380Y-78955664D02*
X138007380Y-79655664D01*
X137357380Y-79655664D01*
X137357380Y-78955664D01*
X138007380Y-78955664D01*
X138007380Y-78955664D01*
G37*
G36*
X146030000Y-123035000D02*
X145330000Y-123035000D01*
X145330000Y-122385000D01*
X146030000Y-122385000D01*
X146030000Y-123035000D01*
X146030000Y-123035000D01*
G37*
G36*
X146030000Y-121765000D02*
X145330000Y-121765000D01*
X145330000Y-121115000D01*
X146030000Y-121115000D01*
X146030000Y-121765000D01*
X146030000Y-121765000D01*
G37*
G36*
X155605000Y-76231328D02*
X155605000Y-76931328D01*
X154955000Y-76931328D01*
X154955000Y-76231328D01*
X155605000Y-76231328D01*
X155605000Y-76231328D01*
G37*
G36*
X154335000Y-76231328D02*
X154335000Y-76931328D01*
X153685000Y-76931328D01*
X153685000Y-76231328D01*
X154335000Y-76231328D01*
X154335000Y-76231328D01*
G37*
G36*
X153050000Y-76905000D02*
X152350000Y-76905000D01*
X152350000Y-76255000D01*
X153050000Y-76255000D01*
X153050000Y-76905000D01*
X153050000Y-76905000D01*
G37*
G36*
X153050000Y-75635000D02*
X152350000Y-75635000D01*
X152350000Y-74985000D01*
X153050000Y-74985000D01*
X153050000Y-75635000D01*
X153050000Y-75635000D01*
G37*
G36*
X150650000Y-76906328D02*
X149950000Y-76906328D01*
X149950000Y-76256328D01*
X150650000Y-76256328D01*
X150650000Y-76906328D01*
X150650000Y-76906328D01*
G37*
G36*
X150650000Y-75636328D02*
X149950000Y-75636328D01*
X149950000Y-74986328D01*
X150650000Y-74986328D01*
X150650000Y-75636328D01*
X150650000Y-75636328D01*
G37*
G36*
X151150000Y-74986328D02*
X151850000Y-74986328D01*
X151850000Y-75636328D01*
X151150000Y-75636328D01*
X151150000Y-74986328D01*
X151150000Y-74986328D01*
G37*
G36*
X151150000Y-76256328D02*
X151850000Y-76256328D01*
X151850000Y-76906328D01*
X151150000Y-76906328D01*
X151150000Y-76256328D01*
X151150000Y-76256328D01*
G37*
G36*
X146134760Y-74985000D02*
X146834760Y-74985000D01*
X146834760Y-75635000D01*
X146134760Y-75635000D01*
X146134760Y-74985000D01*
X146134760Y-74985000D01*
G37*
G36*
X146134760Y-76255000D02*
X146834760Y-76255000D01*
X146834760Y-76905000D01*
X146134760Y-76905000D01*
X146134760Y-76255000D01*
X146134760Y-76255000D01*
G37*
G36*
X142007380Y-87715664D02*
X142007380Y-87015664D01*
X142657380Y-87015664D01*
X142657380Y-87715664D01*
X142007380Y-87715664D01*
X142007380Y-87715664D01*
G37*
G36*
X143277380Y-87715664D02*
X143277380Y-87015664D01*
X143927380Y-87015664D01*
X143927380Y-87715664D01*
X143277380Y-87715664D01*
X143277380Y-87715664D01*
G37*
G36*
X145059760Y-85131328D02*
X145059760Y-84431328D01*
X145709760Y-84431328D01*
X145709760Y-85131328D01*
X145059760Y-85131328D01*
X145059760Y-85131328D01*
G37*
G36*
X146329760Y-85131328D02*
X146329760Y-84431328D01*
X146979760Y-84431328D01*
X146979760Y-85131328D01*
X146329760Y-85131328D01*
X146329760Y-85131328D01*
G37*
G36*
X145059760Y-83831328D02*
X145059760Y-83131328D01*
X145709760Y-83131328D01*
X145709760Y-83831328D01*
X145059760Y-83831328D01*
X145059760Y-83831328D01*
G37*
G36*
X146329760Y-83831328D02*
X146329760Y-83131328D01*
X146979760Y-83131328D01*
X146979760Y-83831328D01*
X146329760Y-83831328D01*
X146329760Y-83831328D01*
G37*
G36*
X141934760Y-74106328D02*
X141234760Y-74106328D01*
X141234760Y-73456328D01*
X141934760Y-73456328D01*
X141934760Y-74106328D01*
X141934760Y-74106328D01*
G37*
G36*
X141934760Y-72836328D02*
X141234760Y-72836328D01*
X141234760Y-72186328D01*
X141934760Y-72186328D01*
X141934760Y-72836328D01*
X141934760Y-72836328D01*
G37*
G36*
X140522380Y-74106328D02*
X139822380Y-74106328D01*
X139822380Y-73456328D01*
X140522380Y-73456328D01*
X140522380Y-74106328D01*
X140522380Y-74106328D01*
G37*
G36*
X140522380Y-72836328D02*
X139822380Y-72836328D01*
X139822380Y-72186328D01*
X140522380Y-72186328D01*
X140522380Y-72836328D01*
X140522380Y-72836328D01*
G37*
G36*
X140302380Y-80310664D02*
X141002380Y-80310664D01*
X141002380Y-80960664D01*
X140302380Y-80960664D01*
X140302380Y-80310664D01*
X140302380Y-80310664D01*
G37*
G36*
X140302380Y-81580664D02*
X141002380Y-81580664D01*
X141002380Y-82230664D01*
X140302380Y-82230664D01*
X140302380Y-81580664D01*
X140302380Y-81580664D01*
G37*
G36*
X136600000Y-68115000D02*
X137300000Y-68115000D01*
X137300000Y-68765000D01*
X136600000Y-68765000D01*
X136600000Y-68115000D01*
X136600000Y-68115000D01*
G37*
G36*
X136600000Y-69385000D02*
X137300000Y-69385000D01*
X137300000Y-70035000D01*
X136600000Y-70035000D01*
X136600000Y-69385000D01*
X136600000Y-69385000D01*
G37*
G36*
X138622380Y-74106328D02*
X137922380Y-74106328D01*
X137922380Y-73456328D01*
X138622380Y-73456328D01*
X138622380Y-74106328D01*
X138622380Y-74106328D01*
G37*
G36*
X138622380Y-72836328D02*
X137922380Y-72836328D01*
X137922380Y-72186328D01*
X138622380Y-72186328D01*
X138622380Y-72836328D01*
X138622380Y-72836328D01*
G37*
G36*
X138622380Y-80290664D02*
X139322380Y-80290664D01*
X139322380Y-80940664D01*
X138622380Y-80940664D01*
X138622380Y-80290664D01*
X138622380Y-80290664D01*
G37*
G36*
X138622380Y-81560664D02*
X139322380Y-81560664D01*
X139322380Y-82210664D01*
X138622380Y-82210664D01*
X138622380Y-81560664D01*
X138622380Y-81560664D01*
G37*
G36*
X136034760Y-70040664D02*
X135334760Y-70040664D01*
X135334760Y-69390664D01*
X136034760Y-69390664D01*
X136034760Y-70040664D01*
X136034760Y-70040664D01*
G37*
G36*
X136034760Y-68770664D02*
X135334760Y-68770664D01*
X135334760Y-68120664D01*
X136034760Y-68120664D01*
X136034760Y-68770664D01*
X136034760Y-68770664D01*
G37*
G36*
X136497380Y-76475664D02*
X136497380Y-77175664D01*
X135847380Y-77175664D01*
X135847380Y-76475664D01*
X136497380Y-76475664D01*
X136497380Y-76475664D01*
G37*
G36*
X135227380Y-76475664D02*
X135227380Y-77175664D01*
X134577380Y-77175664D01*
X134577380Y-76475664D01*
X135227380Y-76475664D01*
X135227380Y-76475664D01*
G37*
G36*
X137234760Y-80286328D02*
X137934760Y-80286328D01*
X137934760Y-80936328D01*
X137234760Y-80936328D01*
X137234760Y-80286328D01*
X137234760Y-80286328D01*
G37*
G36*
X137234760Y-81556328D02*
X137934760Y-81556328D01*
X137934760Y-82206328D01*
X137234760Y-82206328D01*
X137234760Y-81556328D01*
X137234760Y-81556328D01*
G37*
G36*
X134347380Y-72465664D02*
X134347380Y-71765664D01*
X134997380Y-71765664D01*
X134997380Y-72465664D01*
X134347380Y-72465664D01*
X134347380Y-72465664D01*
G37*
G36*
X135617380Y-72465664D02*
X135617380Y-71765664D01*
X136267380Y-71765664D01*
X136267380Y-72465664D01*
X135617380Y-72465664D01*
X135617380Y-72465664D01*
G37*
G36*
X132509760Y-72231328D02*
X132509760Y-72931328D01*
X131859760Y-72931328D01*
X131859760Y-72231328D01*
X132509760Y-72231328D01*
X132509760Y-72231328D01*
G37*
G36*
X131239760Y-72231328D02*
X131239760Y-72931328D01*
X130589760Y-72931328D01*
X130589760Y-72231328D01*
X131239760Y-72231328D01*
X131239760Y-72231328D01*
G37*
G36*
X134673044Y-82365664D02*
X134673044Y-81665664D01*
X135323044Y-81665664D01*
X135323044Y-82365664D01*
X134673044Y-82365664D01*
X134673044Y-82365664D01*
G37*
G36*
X135943044Y-82365664D02*
X135943044Y-81665664D01*
X136593044Y-81665664D01*
X136593044Y-82365664D01*
X135943044Y-82365664D01*
X135943044Y-82365664D01*
G37*
G36*
X132507380Y-73525664D02*
X132507380Y-74225664D01*
X131857380Y-74225664D01*
X131857380Y-73525664D01*
X132507380Y-73525664D01*
X132507380Y-73525664D01*
G37*
G36*
X131237380Y-73525664D02*
X131237380Y-74225664D01*
X130587380Y-74225664D01*
X130587380Y-73525664D01*
X131237380Y-73525664D01*
X131237380Y-73525664D01*
G37*
G36*
X134673044Y-83765664D02*
X134673044Y-83065664D01*
X135323044Y-83065664D01*
X135323044Y-83765664D01*
X134673044Y-83765664D01*
X134673044Y-83765664D01*
G37*
G36*
X135943044Y-83765664D02*
X135943044Y-83065664D01*
X136593044Y-83065664D01*
X136593044Y-83765664D01*
X135943044Y-83765664D01*
X135943044Y-83765664D01*
G37*
G36*
X134673044Y-85165664D02*
X134673044Y-84465664D01*
X135323044Y-84465664D01*
X135323044Y-85165664D01*
X134673044Y-85165664D01*
X134673044Y-85165664D01*
G37*
G36*
X135943044Y-85165664D02*
X135943044Y-84465664D01*
X136593044Y-84465664D01*
X136593044Y-85165664D01*
X135943044Y-85165664D01*
X135943044Y-85165664D01*
G37*
G36*
X145009760Y-69431328D02*
X145009760Y-70131328D01*
X144359760Y-70131328D01*
X144359760Y-69431328D01*
X145009760Y-69431328D01*
X145009760Y-69431328D01*
G37*
G36*
X143739760Y-69431328D02*
X143739760Y-70131328D01*
X143089760Y-70131328D01*
X143089760Y-69431328D01*
X143739760Y-69431328D01*
X143739760Y-69431328D01*
G37*
G36*
X149375000Y-140850000D02*
X149375000Y-140150000D01*
X150025000Y-140150000D01*
X150025000Y-140850000D01*
X149375000Y-140850000D01*
X149375000Y-140850000D01*
G37*
G36*
X150645000Y-140850000D02*
X150645000Y-140150000D01*
X151295000Y-140150000D01*
X151295000Y-140850000D01*
X150645000Y-140850000D01*
X150645000Y-140850000D01*
G37*
G36*
X147925000Y-140150000D02*
X147925000Y-140850000D01*
X147275000Y-140850000D01*
X147275000Y-140150000D01*
X147925000Y-140150000D01*
X147925000Y-140150000D01*
G37*
G36*
X146655000Y-140150000D02*
X146655000Y-140850000D01*
X146005000Y-140850000D01*
X146005000Y-140150000D01*
X146655000Y-140150000D01*
X146655000Y-140150000D01*
G37*
G36*
X142550000Y-136675000D02*
X143250000Y-136675000D01*
X143250000Y-137325000D01*
X142550000Y-137325000D01*
X142550000Y-136675000D01*
X142550000Y-136675000D01*
G37*
G36*
X142550000Y-137945000D02*
X143250000Y-137945000D01*
X143250000Y-138595000D01*
X142550000Y-138595000D01*
X142550000Y-137945000D01*
X142550000Y-137945000D01*
G37*
G36*
X140815000Y-142540000D02*
X140815000Y-141840000D01*
X141465000Y-141840000D01*
X141465000Y-142540000D01*
X140815000Y-142540000D01*
X140815000Y-142540000D01*
G37*
G36*
X142085000Y-142540000D02*
X142085000Y-141840000D01*
X142735000Y-141840000D01*
X142735000Y-142540000D01*
X142085000Y-142540000D01*
X142085000Y-142540000D01*
G37*
G36*
X123725000Y-139300000D02*
X123725000Y-140000000D01*
X123075000Y-140000000D01*
X123075000Y-139300000D01*
X123725000Y-139300000D01*
X123725000Y-139300000D01*
G37*
G36*
X122455000Y-139300000D02*
X122455000Y-140000000D01*
X121805000Y-140000000D01*
X121805000Y-139300000D01*
X122455000Y-139300000D01*
X122455000Y-139300000D01*
G37*
G36*
X126325000Y-123550000D02*
X126325000Y-124250000D01*
X125675000Y-124250000D01*
X125675000Y-123550000D01*
X126325000Y-123550000D01*
X126325000Y-123550000D01*
G37*
G36*
X125055000Y-123550000D02*
X125055000Y-124250000D01*
X124405000Y-124250000D01*
X124405000Y-123550000D01*
X125055000Y-123550000D01*
X125055000Y-123550000D01*
G37*
G36*
X138125000Y-122070000D02*
X138125000Y-121370000D01*
X138775000Y-121370000D01*
X138775000Y-122070000D01*
X138125000Y-122070000D01*
X138125000Y-122070000D01*
G37*
G36*
X139395000Y-122070000D02*
X139395000Y-121370000D01*
X140045000Y-121370000D01*
X140045000Y-122070000D01*
X139395000Y-122070000D01*
X139395000Y-122070000D01*
G37*
G36*
X138125000Y-120820000D02*
X138125000Y-120120000D01*
X138775000Y-120120000D01*
X138775000Y-120820000D01*
X138125000Y-120820000D01*
X138125000Y-120820000D01*
G37*
G36*
X139395000Y-120820000D02*
X139395000Y-120120000D01*
X140045000Y-120120000D01*
X140045000Y-120820000D01*
X139395000Y-120820000D01*
X139395000Y-120820000D01*
G37*
G36*
X143375000Y-134250000D02*
X143375000Y-133550000D01*
X144025000Y-133550000D01*
X144025000Y-134250000D01*
X143375000Y-134250000D01*
X143375000Y-134250000D01*
G37*
G36*
X144645000Y-134250000D02*
X144645000Y-133550000D01*
X145295000Y-133550000D01*
X145295000Y-134250000D01*
X144645000Y-134250000D01*
X144645000Y-134250000D01*
G37*
G36*
X144075000Y-128950000D02*
X144075000Y-128250000D01*
X144725000Y-128250000D01*
X144725000Y-128950000D01*
X144075000Y-128950000D01*
X144075000Y-128950000D01*
G37*
G36*
X145345000Y-128950000D02*
X145345000Y-128250000D01*
X145995000Y-128250000D01*
X145995000Y-128950000D01*
X145345000Y-128950000D01*
X145345000Y-128950000D01*
G37*
G36*
X123237380Y-137115664D02*
X123237380Y-137815664D01*
X122587380Y-137815664D01*
X122587380Y-137115664D01*
X123237380Y-137115664D01*
X123237380Y-137115664D01*
G37*
G36*
X121967380Y-137115664D02*
X121967380Y-137815664D01*
X121317380Y-137815664D01*
X121317380Y-137115664D01*
X121967380Y-137115664D01*
X121967380Y-137115664D01*
G37*
G36*
X140815000Y-143940000D02*
X140815000Y-143240000D01*
X141465000Y-143240000D01*
X141465000Y-143940000D01*
X140815000Y-143940000D01*
X140815000Y-143940000D01*
G37*
G36*
X142085000Y-143940000D02*
X142085000Y-143240000D01*
X142735000Y-143240000D01*
X142735000Y-143940000D01*
X142085000Y-143940000D01*
X142085000Y-143940000D01*
G37*
G36*
X128145000Y-122100000D02*
X128145000Y-122800000D01*
X127495000Y-122800000D01*
X127495000Y-122100000D01*
X128145000Y-122100000D01*
X128145000Y-122100000D01*
G37*
G36*
X126875000Y-122100000D02*
X126875000Y-122800000D01*
X126225000Y-122800000D01*
X126225000Y-122100000D01*
X126875000Y-122100000D01*
X126875000Y-122100000D01*
G37*
G36*
X149245000Y-124040000D02*
X149245000Y-124740000D01*
X148595000Y-124740000D01*
X148595000Y-124040000D01*
X149245000Y-124040000D01*
X149245000Y-124040000D01*
G37*
G36*
X147975000Y-124040000D02*
X147975000Y-124740000D01*
X147325000Y-124740000D01*
X147325000Y-124040000D01*
X147975000Y-124040000D01*
X147975000Y-124040000D01*
G37*
G36*
X144075000Y-126060000D02*
X144075000Y-125360000D01*
X144725000Y-125360000D01*
X144725000Y-126060000D01*
X144075000Y-126060000D01*
X144075000Y-126060000D01*
G37*
G36*
X145345000Y-126060000D02*
X145345000Y-125360000D01*
X145995000Y-125360000D01*
X145995000Y-126060000D01*
X145345000Y-126060000D01*
X145345000Y-126060000D01*
G37*
G36*
X149245000Y-125340000D02*
X149245000Y-126040000D01*
X148595000Y-126040000D01*
X148595000Y-125340000D01*
X149245000Y-125340000D01*
X149245000Y-125340000D01*
G37*
G36*
X147975000Y-125340000D02*
X147975000Y-126040000D01*
X147325000Y-126040000D01*
X147325000Y-125340000D01*
X147975000Y-125340000D01*
X147975000Y-125340000D01*
G37*
G36*
X144075000Y-127450000D02*
X144075000Y-126750000D01*
X144725000Y-126750000D01*
X144725000Y-127450000D01*
X144075000Y-127450000D01*
X144075000Y-127450000D01*
G37*
G36*
X145345000Y-127450000D02*
X145345000Y-126750000D01*
X145995000Y-126750000D01*
X145995000Y-127450000D01*
X145345000Y-127450000D01*
X145345000Y-127450000D01*
G37*
G36*
X150475000Y-136050000D02*
X150475000Y-135350000D01*
X151125000Y-135350000D01*
X151125000Y-136050000D01*
X150475000Y-136050000D01*
X150475000Y-136050000D01*
G37*
G36*
X151745000Y-136050000D02*
X151745000Y-135350000D01*
X152395000Y-135350000D01*
X152395000Y-136050000D01*
X151745000Y-136050000D01*
X151745000Y-136050000D01*
G37*
G36*
X148437339Y-135350000D02*
X148437339Y-136050000D01*
X147787339Y-136050000D01*
X147787339Y-135350000D01*
X148437339Y-135350000D01*
X148437339Y-135350000D01*
G37*
G36*
X147167339Y-135350000D02*
X147167339Y-136050000D01*
X146517339Y-136050000D01*
X146517339Y-135350000D01*
X147167339Y-135350000D01*
X147167339Y-135350000D01*
G37*
G36*
X146462339Y-134403015D02*
X146462339Y-132003015D01*
X148362339Y-132003015D01*
X148362339Y-134403015D01*
X146462339Y-134403015D01*
X146462339Y-134403015D01*
G37*
G36*
X150572339Y-134403015D02*
X150572339Y-132003015D01*
X152472339Y-132003015D01*
X152472339Y-134403015D01*
X150572339Y-134403015D01*
X150572339Y-134403015D01*
G37*
G36*
X146850000Y-139550000D02*
X146850000Y-137650000D01*
X147950000Y-137650000D01*
X147950000Y-139550000D01*
X146850000Y-139550000D01*
X146850000Y-139550000D01*
G37*
G36*
X149364840Y-139550000D02*
X149364840Y-137650000D01*
X150464840Y-137650000D01*
X150464840Y-139550000D01*
X149364840Y-139550000D01*
X149364840Y-139550000D01*
G37*
D33*
X109972380Y-91915664D03*
X109972380Y-93315664D03*
X112072380Y-93315664D03*
X112072380Y-91915664D03*
D34*
X181450000Y-119250000D03*
X182850000Y-119250000D03*
X182850000Y-117150000D03*
X181450000Y-117150000D03*
D11*
X181600000Y-108150000D03*
X183330000Y-108150000D03*
D35*
X183863280Y-106455000D03*
X183863280Y-104550000D03*
X183863280Y-105502500D03*
X181750000Y-104550000D03*
X181750000Y-106455000D03*
D36*
X122772380Y-94306640D03*
X124677380Y-94306640D03*
X123724880Y-94306640D03*
X124677380Y-92193360D03*
X122772380Y-92193360D03*
X134084760Y-67254688D03*
X132179760Y-67254688D03*
X133132260Y-67254688D03*
X132179760Y-69367968D03*
X134084760Y-69367968D03*
D37*
X144400000Y-78400000D03*
X144400000Y-80600000D03*
M02*
